<svg xmlns="http://www.w3.org/2000/svg" viewBox="0 0 48.29 100.02"><defs><style>.cls-1{fill:#754c24;}.cls-2{fill:#c47e3f;}.cls-3{fill:none;stroke:#fff;stroke-miterlimit:10;}.cls-4{opacity:0.25;}.cls-5{fill:#c99a3a;}</style></defs><title>Basketball_Drop_48x100</title><g id="Layer_2" data-name="Layer 2"><g id="Layer_1-2" data-name="Layer 1"><path class="cls-1" d="M47.06,76.57a23.39,23.39,0,1,1-23.37-23.5A23.49,23.49,0,0,1,47.06,76.57Zm-27.43,21A40.58,40.58,0,0,0,25.6,82a152.29,152.29,0,0,0,1.09-18.11c0-.21,0-.43-.06-.74H22.75c-.12.72-.19,1.42-.36,2.1a22,22,0,0,1-4.65,8.46c-2.7,3.37-5.57,6.61-8.31,10a36.35,36.35,0,0,0-2.65,3.84A1.8,1.8,0,0,0,7,89.88,21.81,21.81,0,0,0,19.63,97.57Zm2.29.25a4,4,0,0,0,.46.1,21.11,21.11,0,0,0,15.27-5.24,1.91,1.91,0,0,0,.65-1,24.4,24.4,0,0,0,.64-4.77c-.08-3.14-1.41-6-2.57-8.84-1.74-4.24-3.64-8.43-3.56-13.16,0-.18-.15-.48-.28-.51-1.23-.35-2.47-.64-3.78-1,0,.51,0,.79-.05,1.08-.15,4-.26,8-.44,11.93a43.47,43.47,0,0,1-5.85,20.43C22.24,97.15,22.11,97.46,21.92,97.82ZM4.75,86.41c1.85-2.31,3.67-4.63,5.54-6.91s4-4.54,5.78-7a53.63,53.63,0,0,0,3.83-6.23,14.43,14.43,0,0,0,.88-3.1,33.1,33.1,0,0,0-14,4.49c-2.63,1.59-4.28,3.65-4.41,6.93A22.83,22.83,0,0,0,4.75,86.41ZM34.9,65.26c0,.37,0,.62,0,.87a23.23,23.23,0,0,0,1.64,6.92c1.86,5.09,4.7,9.89,4.51,15.73a3.82,3.82,0,0,0,.38-.39,21.17,21.17,0,0,0,3.3-15.28A2.4,2.4,0,0,0,44.19,72a25.37,25.37,0,0,0-8.25-6.32C35.63,65.56,35.31,65.44,34.9,65.26Zm-29.83,1a35,35,0,0,1,15.32-5.09c-.62-3-3.65-5-6-3.87A20.06,20.06,0,0,0,5.07,66.26Zm21.6-5.19V55.35a19.81,19.81,0,0,0-7.94.39,7.07,7.07,0,0,1,3.78,5.33Zm8.86-2.3c-1.91-1.41-5.31-2.87-6.73-2.85v5.45l4.14,1Zm-.34,4.14,7.93,4.84a20.52,20.52,0,0,0-5.32-7.22,1,1,0,0,0-.83,0A3.67,3.67,0,0,0,35.19,62.91Z"/><path class="cls-2" d="M19.63,97.57A21.81,21.81,0,0,1,7,89.88a1.8,1.8,0,0,1-.19-2.34A36.35,36.35,0,0,1,9.43,83.7c2.74-3.34,5.61-6.58,8.31-10a22,22,0,0,0,4.65-8.46c.17-.68.24-1.38.36-2.1h3.88c0,.31.06.53.06.74A152.29,152.29,0,0,1,25.6,82,40.58,40.58,0,0,1,19.63,97.57Z"/><path class="cls-2" d="M21.92,97.82c.19-.36.32-.67.49-1a43.47,43.47,0,0,0,5.85-20.43c.18-4,.29-8,.44-11.93,0-.29,0-.57.05-1.08,1.31.33,2.55.62,3.78,1,.13,0,.28.33.28.51-.08,4.73,1.82,8.92,3.56,13.16,1.16,2.86,2.49,5.7,2.57,8.84a24.4,24.4,0,0,1-.64,4.77,1.91,1.91,0,0,1-.65,1,21.11,21.11,0,0,1-15.27,5.24A4,4,0,0,1,21.92,97.82Z"/><path class="cls-2" d="M4.75,86.41A22.83,22.83,0,0,1,2.38,74.63c.13-3.28,1.78-5.34,4.41-6.93a33.1,33.1,0,0,1,14-4.49,14.43,14.43,0,0,1-.88,3.1,53.63,53.63,0,0,1-3.83,6.23c-1.79,2.42-3.86,4.63-5.78,7S6.6,84.1,4.75,86.41Z"/><path class="cls-2" d="M34.9,65.26c.41.18.73.3,1,.45A25.37,25.37,0,0,1,44.19,72a2.4,2.4,0,0,1,.54,1.08,21.17,21.17,0,0,1-3.3,15.28,3.82,3.82,0,0,1-.38.39c.19-5.84-2.65-10.64-4.51-15.73a23.23,23.23,0,0,1-1.64-6.92C34.89,65.88,34.9,65.63,34.9,65.26Z"/><path class="cls-2" d="M5.07,66.26a20.06,20.06,0,0,1,9.29-9c2.38-1.12,5.41.87,6,3.87A35,35,0,0,0,5.07,66.26Z"/><path class="cls-2" d="M26.67,61.07H22.51a7.07,7.07,0,0,0-3.78-5.33,19.81,19.81,0,0,1,7.94-.39Z"/><path class="cls-2" d="M35.53,58.77l-2.59,3.58-4.14-1V55.92C30.22,55.9,33.62,57.36,35.53,58.77Z"/><path class="cls-2" d="M35.19,62.91A3.67,3.67,0,0,1,37,60.58a1,1,0,0,1,.83,0,20.52,20.52,0,0,1,5.32,7.22Z"/><ellipse class="cls-3" cx="23.89" cy="76.05" rx="23.39" ry="23.47"/><g class="cls-4"><path class="cls-5" d="M4.21,63.71a1,1,0,0,1-1-1V35.05a1,1,0,1,1,2,0V62.72A1,1,0,0,1,4.21,63.71Z"/><path class="cls-5" d="M22.7,53.83a1,1,0,0,1-1-1V1a1,1,0,1,1,2,0V52.83A1,1,0,0,1,22.7,53.83Z"/><path class="cls-5" d="M40,59.94a1,1,0,0,1-1-1V44.66a1,1,0,1,1,2,0V58.94A1,1,0,0,1,40,59.94Z"/><path class="cls-5" d="M47.3,73.27a1,1,0,0,1-1-1V21.17a1,1,0,1,1,2,0v51.1A1,1,0,0,1,47.3,73.27Z"/></g></g></g></svg>