<svg xmlns="http://www.w3.org/2000/svg" viewBox="0 0 31 35"><defs><style>.cls-1{fill:#c99a3a;}</style></defs><title>Left_Arrows_31x35_31x35</title><g id="Layer_2" data-name="Layer 2"><g id="Layer_1-2" data-name="Layer 1"><path class="cls-1" d="M17.71,0a.6.6,0,0,0,.11.06,2,2,0,0,1,1.64,1.57,2.14,2.14,0,0,1-.65,2.17L8.55,13.87,5.1,17.26c.09.09.15.18.23.26l13.33,13.7a2.16,2.16,0,0,1-.26,3.41,5.38,5.38,0,0,1-.89.37H17a3.66,3.66,0,0,1-1.78-1.25L.91,19.07A2.59,2.59,0,0,1,0,17.58a2.24,2.24,0,0,1,.69-2q3.08-3,6.13-6l8.55-8.39A3.66,3.66,0,0,1,17.17,0Z"/><path class="cls-1" d="M28.44,35a3.69,3.69,0,0,1-1.79-1.25L12.37,19.07a2.63,2.63,0,0,1-.88-1.49,2.17,2.17,0,0,1,.68-2l6.14-6,8.54-8.39A3.69,3.69,0,0,1,28.64,0h.53a.67.67,0,0,0,.12.06A2,2,0,0,1,30.92,1.6a2.17,2.17,0,0,1-.64,2.2l-9.52,9.34-4.05,4-.14.15.3.32L30.13,31.22a2.17,2.17,0,0,1-.41,3.5A6.09,6.09,0,0,1,29,35Z"/></g></g></svg>