<svg xmlns="http://www.w3.org/2000/svg" viewBox="0 0 90 90"><defs><style>.cls-1{opacity:0.68;}.cls-2{fill:#f2f2f2;}</style></defs><title>Play_90x90</title><g id="Layer_2" data-name="Layer 2"><g id="Layer_1-2" data-name="Layer 1"><g class="cls-1"><path class="cls-2" d="M0,45A44.7,44.7,0,0,1,45.08,0,44.73,44.73,0,0,1,90,44.77,44.69,44.69,0,0,1,44.72,90,44.74,44.74,0,0,1,0,45Zm32.62,0c0,6,0,12,0,18A4.7,4.7,0,0,0,35,67.51a4.53,4.53,0,0,0,5.1-.46Q53.23,58,66.34,49c3.19-2.22,3.19-5.77,0-8C57.61,35,48.84,29,40.1,23a4.51,4.51,0,0,0-5.1-.46A4.7,4.7,0,0,0,32.61,27C32.65,33,32.63,39,32.62,45Z"/></g></g></g></svg>