<svg xmlns="http://www.w3.org/2000/svg" viewBox="0 0 31.61 35"><defs><style>.cls-1{fill:#c99a3a;}</style></defs><title>Right_Arrows_31x35</title><g id="Layer_2" data-name="Layer 2"><g id="Layer_1-2" data-name="Layer 1"><path class="cls-1" d="M13.55,35a.45.45,0,0,0-.12-.06,2,2,0,0,1-1.66-1.57,2.11,2.11,0,0,1,.66-2.17L22.89,21.13l3.52-3.39c-.09-.09-.16-.18-.23-.26q-6.81-6.84-13.6-13.7A2.13,2.13,0,0,1,12.85.37,5.25,5.25,0,0,1,13.76,0h.54a3.8,3.8,0,0,1,1.83,1.25q7.28,7.33,14.56,14.68a2.66,2.66,0,0,1,.9,1.49,2.22,2.22,0,0,1-.7,2l-6.26,6-8.71,8.39A3.77,3.77,0,0,1,14.1,35Z"/><path class="cls-1" d="M2.61,0A3.8,3.8,0,0,1,4.44,1.25Q11.7,8.6,19,15.93a2.66,2.66,0,0,1,.9,1.49,2.18,2.18,0,0,1-.7,2l-6.26,6L4.23,33.81A3.77,3.77,0,0,1,2.41,35H1.86a.6.6,0,0,0-.11-.06A2,2,0,0,1,.09,33.4a2.09,2.09,0,0,1,.65-2.2l9.7-9.34,4.13-4,.14-.15-.3-.32L.89,3.78A2.15,2.15,0,0,1,1.31.28,5.68,5.68,0,0,1,2.07,0Z"/></g></g></svg>