<svg xmlns="http://www.w3.org/2000/svg" viewBox="0 0 19 19"><defs><style>.cls-1{fill:#666;}</style></defs><title>Sound_19x19</title><g id="Layer_2" data-name="Layer 2"><g id="Layer_1-2" data-name="Layer 1"><path class="cls-1" d="M11.17,9.54c0,2.77,0,5.53,0,8.3A1,1,0,0,1,10.43,19a.93.93,0,0,1-.95-.25Q6.87,16,4.28,13.36A.6.6,0,0,1,4.14,13c0-2.31,0-4.63,0-6.94a.74.74,0,0,1,.2-.45C6,3.86,7.67,2.15,9.34.43a1,1,0,0,1,1.83.74C11.16,4,11.17,6.75,11.17,9.54Z"/><path class="cls-1" d="M3.3,5.78v7.4c-.79,0-1.57.06-2.34,0A1.1,1.1,0,0,1,0,12.05C0,10.35,0,8.66,0,7A1.17,1.17,0,0,1,1.15,5.79C1.84,5.76,2.55,5.78,3.3,5.78Z"/><path class="cls-1" d="M15.62,15.51a.9.9,0,0,1-.14-.14l-.35-.51a6.23,6.23,0,0,0,0-10.71l.47-.68A6.91,6.91,0,0,1,19,9.33,6.89,6.89,0,0,1,15.62,15.51Z"/><path class="cls-1" d="M14.2,13.49l-.46-.68a3.77,3.77,0,0,0,0-6.61l.45-.68a4.57,4.57,0,0,1,0,8Z"/><path class="cls-1" d="M12.32,8.27l.45-.66a2,2,0,0,1,0,3.78l-.44-.64C13.53,9.87,13.54,9,12.32,8.27Z"/></g></g></svg>