<svg xmlns="http://www.w3.org/2000/svg" viewBox="0 0 183 42"><defs><style>.cls-1{fill:#fff;}.cls-2{fill:#552084;}.cls-3{fill:#7944b2;}</style></defs><title>Taco_183x42</title><g id="Layer_2" data-name="Layer 2"><g id="Layer_1-2" data-name="Layer 1"><path class="cls-1" d="M30.23,4.67c2.8,0,8.39.24,13.07.24,3,0,7.91-.15,15-.48-.78,4-1.6,8.87-2.08,13.07A40.74,40.74,0,0,0,50,16.68c-.2,1.59-.29,6.66-.29,8.49,0,.53.09,7.72.48,14.52-1.45-.1-3.57-.29-6.8-.34-.68,0-3.28,0-7.14.19.43-4,.58-10.37.58-14.56,0-1.35-.05-4-.39-8.16-1.78.15-4.92.34-8,.68Z"/><path class="cls-1" d="M50.57,40.06l-.39,0L49.35,40c-1.39-.1-3.3-.24-6-.28-.64,0-3.24,0-7.12.19l-.4,0,0-.4c.43-4,.58-10.32.58-14.53,0-2.14-.12-4.75-.36-7.78l-1.25.09c-1.73.13-4.09.3-6.35.55l-.44.05L29.92,4.32h.31c1.22,0,2.95,0,4.95.1,2.57.06,5.49.14,8.12.14,3.2,0,8.36-.17,14.94-.48l.44,0-.08.43C57.71,9,57,13.77,56.53,17.54l-.05.38-.37-.08a39.23,39.23,0,0,0-5.79-.79c-.17,1.84-.26,6.41-.26,8.12,0,.71.11,7.8.49,14.5ZM43.4,39c2.68,0,4.6.18,6,.28l.42,0c-.36-6.59-.46-13.44-.46-14.14,0-1.69.09-6.87.29-8.53l0-.33.32,0a41.9,41.9,0,0,1,5.86.75c.43-3.6,1.13-8,1.95-12.29-6.38.31-11.39.47-14.53.47-2.64,0-5.56-.08-8.13-.15C33.33,5.06,31.72,5,30.53,5L28.89,17.1c2.14-.22,4.32-.38,5.94-.5l1.59-.12.35,0,0,.35c.25,3.19.38,5.94.38,8.18,0,4.29-.14,10.2-.54,14.2C40.32,39.05,42.77,39,43.4,39Z"/><path class="cls-1" d="M85.61,18.22c2.07,7.14,4.29,14.28,6.6,21.37-.91,0-2,.1-3.52.1-.82,0-8.73-.15-10.42-.19a52.92,52.92,0,0,1-.87-5.6,60,60,0,0,0-7.76-.68C69,34.67,68,37.28,67.23,39.45c-3,.19-4.06.29-8.4.29-2.31,0-3.23-.05-5.79-.2,6.18-14.32,7.53-17.41,13-35a70.07,70.07,0,0,1,7.91-.34c4,0,6.18.15,7.91.24C82.47,6.65,85,16.24,85.61,18.22Zm-11.53,4c1.25,0,1.73-.05,2.5-.1-.86-1.93-2.12-5.35-2.79-7.38-.49,1.69-1.5,5.07-2.46,7.48Z"/><path class="cls-1" d="M58.83,40.08c-2.28,0-3.15,0-5.81-.19l-.49,0,.36-.85c6-13.87,7.4-17.16,12.8-34.54l.06-.21.22,0a67.94,67.94,0,0,1,8-.34c3.66,0,5.79.12,7.51.21l.67,0,.07.24c.3,1.06,1.09,4,1.85,6.76s1.61,6,1.91,7h0c2,6.8,4.2,14,6.61,21.35l.14.44-.46,0c-.9.05-2,.1-3.54.1-.77,0-8.69-.15-10.43-.2H78l-.06-.27a47.86,47.86,0,0,1-.84-5.38,63.91,63.91,0,0,0-7.23-.61c-.67,1.57-1.64,4-2.3,6l-.08.22-.86.06C64.12,40,62.86,40.08,58.83,40.08Zm-5.27-.86c2.27.13,3.16.17,5.27.17,4,0,5.26-.08,7.75-.25l.39,0c.7-2.07,1.69-4.52,2.35-6l.09-.22h.24a59.22,59.22,0,0,1,7.82.68l.25,0,0,.36a52.15,52.15,0,0,0,.79,5.19c2.17.05,9.41.18,10.14.18,1.25,0,2.24,0,3-.07C89.39,32,87.21,25,85.27,18.32h0c-.29-1-1.12-4.06-1.92-7-.7-2.61-1.43-5.3-1.77-6.51H81.4c-1.71-.1-3.83-.22-7.47-.22a73.21,73.21,0,0,0-7.64.31C60.94,22.09,59.5,25.44,53.56,39.22ZM74.08,22.53H70.81l.19-.48c1-2.61,2.14-6.36,2.45-7.44l.31-1.09.36,1.07C74.74,16.45,76,20,76.9,21.94l.21.46-.85.05C75.66,22.49,75.14,22.53,74.08,22.53Zm-2.24-.7h2.24c1,0,1.46,0,2-.06-.73-1.69-1.64-4.13-2.26-5.91C73.35,17.43,72.6,19.85,71.84,21.83Z"/><path class="cls-1" d="M98.72,8.33A31.75,31.75,0,0,1,109.05,3.8c.77,0,1.16.43,2.94,3a98,98,0,0,1,5.45,8.44c-6.22-.58-12.35,3.09-12.35,6.75,0,4,7.33,7.19,12.06,6.8-1.49,3-4.39,8.88-5.69,10.42a2.25,2.25,0,0,1-1.79.82c-4.14,0-10.22-3.81-12.68-5.74-3.38-2.6-6.18-7.09-6.18-11.67C90.81,17.21,94.38,11.47,98.72,8.33Z"/><path class="cls-1" d="M109.67,40.42c-4.5,0-10.84-4.19-12.9-5.81-3.83-3-6.31-7.65-6.31-11.95,0-5.18,3.32-11.18,8.06-14.61h0a31.7,31.7,0,0,1,10.53-4.6c1,0,1.4.52,3.23,3.19a97,97,0,0,1,5.46,8.46l.34.59-.67-.06a14,14,0,0,0-10.18,3.07A4.69,4.69,0,0,0,105.44,22a4.3,4.3,0,0,0,1.63,3.08,14.85,14.85,0,0,0,10.05,3.38l.61,0-.27.55c-2,4.12-4.51,9-5.73,10.49A2.62,2.62,0,0,1,109.67,40.42Zm-.62-36.27A31.7,31.7,0,0,0,98.93,8.62h0c-4.58,3.3-7.77,9.07-7.77,14,0,4.09,2.37,8.57,6,11.4,2.8,2.19,8.65,5.67,12.47,5.67a1.93,1.93,0,0,0,1.53-.7c1.23-1.47,4-7.12,5.38-9.82a15.74,15.74,0,0,1-10-3.58,5,5,0,0,1-1.86-3.6,5.34,5.34,0,0,1,2-3.84,14.45,14.45,0,0,1,10-3.3c-1.43-2.45-2.22-3.7-5.11-7.85C110,4.52,109.64,4.15,109.05,4.15Z"/><path class="cls-1" d="M147.59,9.35c3.76,4.05,4.63,9.35,4.63,13.21,0,9.41-5.55,17.18-17,17.18-11.05,0-17.41-7.67-17.41-17.51,0-3.57.86-9.22,4.53-13,2-2.07,5-4.29,12.54-4.29C138.76,4.91,144.16,5.63,147.59,9.35Zm-12.21,7a5.69,5.69,0,0,0-5.64,5.26,6,6,0,0,0,5.64,5.64,5.42,5.42,0,0,0,5.26-5.59A5.3,5.3,0,0,0,135.38,16.34Z"/><path class="cls-1" d="M135.24,40.08c-10.62,0-17.76-7.17-17.76-17.85,0-2.54.45-8.92,4.63-13.27,2.07-2.17,5.22-4.4,12.79-4.4,4,0,9.48.79,12.95,4.55,3.9,4.21,4.72,9.64,4.72,13.45a18.08,18.08,0,0,1-4.29,12.35C145.22,38.3,140.71,40.08,135.24,40.08ZM134.9,5.26c-7.31,0-10.31,2.11-12.29,4.18-4,4.17-4.44,10.33-4.44,12.79,0,10.26,6.86,17.16,17.07,17.16,8,0,16.63-4.42,16.63-16.83,0-3.69-.78-8.94-4.53-13h0C144,6,138.75,5.26,134.9,5.26Zm.48,22.33a6.4,6.4,0,0,1-6-6c0-2.93,2.86-5.61,6-5.61A5.65,5.65,0,0,1,141,21.65a5.83,5.83,0,0,1-1.91,4.47A5.73,5.73,0,0,1,135.38,27.59Zm0-10.9a5.31,5.31,0,0,0-5.29,4.91,5.65,5.65,0,0,0,5.29,5.29,5.09,5.09,0,0,0,4.91-5.24A4.94,4.94,0,0,0,135.38,16.69Z"/><path class="cls-2" d="M32.59,2.3c2.8,0,8.39.24,13.07.24,3,0,7.92-.14,15-.48-.77,4-1.59,8.88-2.08,13.08a39.35,39.35,0,0,0-6.17-.82c-.19,1.59-.29,6.65-.29,8.49,0,.53.1,7.71.48,14.51C51.12,37.23,49,37,45.76,37c-.67,0-3.28,0-7.14.19.43-4,.58-10.37.58-14.57,0-1.35-.05-3.95-.39-8.15-1.78.14-4.92.34-8,.68Z"/><path class="cls-1" d="M60.62,2.06c-.77,4-1.59,8.88-2.08,13.08a39.35,39.35,0,0,0-6.17-.82c-.19,1.59-.29,6.65-.29,8.49,0,.53.1,7.71.48,14.51C51.12,37.23,49,37,45.76,37c-.67,0-3.28,0-7.14.19.43-4,.58-10.37.58-14.57,0-1.35-.05-3.95-.39-8.15-1.78.14-4.92.34-8,.68L32.59,2.3c2.8,0,8.39.24,13.07.24,3,0,7.92-.14,15-.48m.85-.73-.88,0c-6.58.31-11.73.48-14.93.48-2.63,0-5.54-.08-8.1-.14-2-.06-3.74-.1-5-.1H32l-.08.6L30.16,15l-.11.89.88-.1c2.26-.25,4.61-.43,6.34-.55l.9-.07c.22,2.87.33,5.36.33,7.4,0,4.21-.15,10.53-.57,14.5l-.09.8.81,0c3.88-.15,6.47-.2,7.11-.2,2.64,0,4.54.18,5.93.28l.83.06.78,0,0-.78c-.38-6.7-.48-13.77-.48-14.48,0-1.61.07-5.76.22-7.76a40.57,40.57,0,0,1,5.4.77l.75.16.09-.77c.43-3.76,1.18-8.5,2.06-13l.17-.87Z"/><path class="cls-2" d="M88,15.86C90,23,92.26,30.14,94.58,37.23c-.92.05-2,.09-3.52.09-.82,0-8.73-.14-10.42-.19a48.06,48.06,0,0,1-.87-5.59A58.43,58.43,0,0,0,72,30.86c-.63,1.45-1.69,4-2.41,6.22-2.94.2-4,.29-8.39.29-2.32,0-3.24,0-5.79-.19,6.17-14.33,7.52-17.41,13-35a70.36,70.36,0,0,1,7.92-.34c4,0,6.17.14,7.91.24C84.83,4.28,87.39,13.88,88,15.86ZM76.44,19.81c1.25,0,1.74,0,2.51-.09-.87-1.93-2.12-5.36-2.8-7.38-.48,1.69-1.5,5.06-2.46,7.47Z"/><path class="cls-1" d="M76.3,1.87c4,0,6.17.14,7.91.24.62,2.17,3.18,11.77,3.76,13.75C90,23,92.26,30.14,94.58,37.23c-.92.05-2,.09-3.52.09-.82,0-8.73-.14-10.42-.19a48.06,48.06,0,0,1-.87-5.59A58.43,58.43,0,0,0,72,30.86c-.63,1.45-1.69,4-2.41,6.22-2.94.2-4,.29-8.39.29-2.32,0-3.24,0-5.79-.19,6.17-14.33,7.52-17.41,13-35a70.36,70.36,0,0,1,7.92-.34M73.69,19.81h2.75c1.25,0,1.74,0,2.51-.09-.87-1.93-2.12-5.36-2.8-7.38-.48,1.69-1.5,5.06-2.46,7.47M76.3,1.17a68.8,68.8,0,0,0-8,.35l-.44.06L67.72,2c-5.39,17.36-6.81,20.65-12.78,34.5l-.17.4-.4.92,1,.06c2.6.14,3.54.19,5.83.19,4,0,5.3-.08,7.81-.25l.62,0,.47,0,.15-.45c.63-1.89,1.54-4.16,2.2-5.72a60.67,60.67,0,0,1,6.69.55A45.38,45.38,0,0,0,80,37.28l.12.53.54,0c1.58,0,9.58.19,10.44.19,1.51,0,2.64-.05,3.55-.1l.91,0L95.24,37c-2.41-7.37-4.63-14.55-6.6-21.35-.3-1-1.12-4-1.92-7C86,5.88,85.18,3,84.87,1.92l-.13-.48-.5,0-.42,0C82.1,1.3,80,1.17,76.3,1.17Zm-1.6,18c.56-1.49,1.09-3.15,1.5-4.51.55,1.52,1.17,3.17,1.72,4.48-.39,0-.83,0-1.48,0Z"/><path class="cls-2" d="M101.09,6a31.73,31.73,0,0,1,10.32-4.53c.77,0,1.16.43,2.94,3a96.94,96.94,0,0,1,5.46,8.45c-6.23-.58-12.35,3.08-12.35,6.75,0,4,7.33,7.19,12.06,6.8-1.5,3-4.39,8.88-5.7,10.42a2.27,2.27,0,0,1-1.78.82c-4.15,0-10.23-3.81-12.69-5.74-3.38-2.6-6.17-7.09-6.17-11.67C93.18,14.85,96.75,9.11,101.09,6Z"/><path class="cls-1" d="M111.41,1.44c.77,0,1.16.43,2.94,3a96.94,96.94,0,0,1,5.46,8.45q-.66-.06-1.32-.06c-5.74,0-11,3.4-11,6.81,0,3.78,6.54,6.83,11.25,6.83.28,0,.54,0,.81,0-1.5,3-4.39,8.88-5.7,10.42a2.27,2.27,0,0,1-1.78.82c-4.15,0-10.23-3.81-12.69-5.74-3.38-2.6-6.17-7.09-6.17-11.67,0-5.45,3.57-11.19,7.91-14.33a31.73,31.73,0,0,1,10.32-4.53m0-.7A20.72,20.72,0,0,0,107.32,2a30,30,0,0,0-6.64,3.44c-4.83,3.48-8.2,9.61-8.2,14.89,0,4.4,2.53,9.2,6.45,12.22,2.08,1.64,8.51,5.89,13.11,5.89a3,3,0,0,0,2.31-1.06c1.25-1.49,3.75-6.43,5.79-10.57l.54-1.1-1.22.1q-.36,0-.75,0c-4.61,0-10.56-3-10.56-6.14,0-1.37,1.14-2.9,3-4.1a14.14,14.14,0,0,1,7.3-2c.42,0,.84,0,1.25.06l1.35.12-.68-1.16a98.61,98.61,0,0,0-5.48-8.49c-1.78-2.59-2.34-3.34-3.52-3.34Z"/><path class="cls-2" d="M150,7c3.77,4.06,4.63,9.36,4.63,13.22,0,9.41-5.54,17.17-17,17.17-11,0-17.41-7.67-17.41-17.51,0-3.57.87-9.21,4.53-13,2-2.08,5-4.3,12.55-4.3C141.13,2.54,146.53,3.27,150,7Zm-12.2,7a5.69,5.69,0,0,0-5.65,5.26,6,6,0,0,0,5.65,5.64,5.43,5.43,0,0,0,5.26-5.6A5.3,5.3,0,0,0,137.75,14Z"/><path class="cls-1" d="M137.27,2.54c3.86,0,9.26.73,12.68,4.44,3.77,4.06,4.63,9.36,4.63,13.22,0,9.41-5.54,17.17-17,17.17-11,0-17.41-7.67-17.41-17.51,0-3.57.87-9.21,4.53-13,2-2.08,5-4.3,12.55-4.3m.48,22.34a5.43,5.43,0,0,0,5.26-5.6,5.3,5.3,0,0,0-5.26-5.3,5.69,5.69,0,0,0-5.65,5.26,6,6,0,0,0,5.65,5.64m-.48-23c-7.71,0-10.92,2.28-13.05,4.51-4.27,4.43-4.73,10.92-4.73,13.5a18.63,18.63,0,0,0,4.76,12.93c3.26,3.45,7.88,5.28,13.35,5.28s10.17-1.83,13.3-5.29a18.39,18.39,0,0,0,4.38-12.58c0-3.88-.84-9.4-4.82-13.69-2-2.13-5.84-4.66-13.19-4.66Zm.48,22.33a5.36,5.36,0,0,1-4.95-4.94c0-2.35,2.4-4.57,4.95-4.57a4.6,4.6,0,0,1,4.56,4.61c0,2-1.45,4.9-4.56,4.9Z"/><path class="cls-3" d="M36.35,4.59l-1.58,4.5a.25.25,0,0,0,0,.12l.07,3.13a.25.25,0,0,0,.49.11l2-5.55a.37.37,0,0,0,0-.18l-.52-2.1A.25.25,0,0,0,36.35,4.59Z"/><path class="cls-3" d="M69.94,4.6,68.25,9.06a.52.52,0,0,0,0,.11v3.14a.25.25,0,0,0,.48.12l2.16-5.49a.31.31,0,0,0,0-.19l-.47-2.11A.25.25,0,0,0,69.94,4.6Z"/><path class="cls-3" d="M98.75,12l-1.69,4.46a.23.23,0,0,0,0,.11v3.14a.25.25,0,0,0,.48.12l2.16-5.5a.36.36,0,0,0,0-.18L99.23,12A.25.25,0,0,0,98.75,12Z"/><path class="cls-3" d="M42.77,21.91A30.11,30.11,0,0,0,42.25,16c-.11-.35-.52-.28-.55.09-.14,1.87-.94,7-.94,10.6,0,2.86.32,5,.32,6.47,0,.29.34.32.38,0l1.31-11.25Z"/><path class="cls-3" d="M66.83,22.23a30.55,30.55,0,0,0,.93-5.88c0-.37-.43-.4-.55-.05-.59,1.77-2.61,6.58-3.48,10.06-.69,2.77-.89,4.89-1.26,6.34-.07.29.26.4.36.13l4-10.6Z"/><path class="cls-3" d="M103.39,26.08a31,31,0,0,0-4.82-3.48c-.34-.15-.56.2-.29.47,1.31,1.32,4.69,5.3,7.4,7.64,2.17,1.87,4,3,5.1,4,.22.19.47-.05.27-.27l-7.65-8.35Z"/><path class="cls-3" d="M126.89,11.3l-1.69,4.46a.26.26,0,0,0,0,.11V19a.25.25,0,0,0,.49.12l2.16-5.5a.27.27,0,0,0,0-.18l-.46-2.11A.25.25,0,0,0,126.89,11.3Z"/><path class="cls-3" d="M131.27,25.57a30.37,30.37,0,0,0-5.18-2.94c-.35-.11-.52.26-.23.5,1.45,1.18,5.23,4.76,8.19,6.8,2.35,1.62,4.26,2.56,5.49,3.41.25.17.47-.1.24-.29l-8.51-7.48Z"/><path class="cls-1" d="M18.21,16.76a7.25,7.25,0,0,1-1-.33Q9.33,12.59,1.51,8.72C1.22,8.57,1,8.38.69,8.21A1.21,1.21,0,0,1,.18,6.46a1.18,1.18,0,0,1,1.74-.54C3.48,6.65,5,7.44,6.55,8.21c3.78,1.88,7.56,3.74,11.31,5.65a4.36,4.36,0,0,1,1.46,1.2C19.9,15.84,19.42,16.67,18.21,16.76Z"/><path class="cls-1" d="M165.53,12.84c-.37-.24-.88-.4-1-.71a1.36,1.36,0,0,1,.13-1.2,7.63,7.63,0,0,1,1.74-1.46c4.7-3,9.41-6,14.12-9,.78-.49,1.56-.8,2.22.13s0,1.61-.71,2.09c-3,1.91-6,3.79-9,5.66-2,1.28-4.08,2.55-6.13,3.81C166.51,12.4,166.07,12.58,165.53,12.84Z"/><path class="cls-1" d="M14.62,26.19l-10.09-.4c-.75,0-1.55-.18-1.5-1.16s.79-1.17,1.57-1.12c3.89.23,7.77.47,11.65.79.45,0,.85.57,1.28.88a5,5,0,0,1-1.22.81A7.92,7.92,0,0,1,14.62,26.19Z"/><path class="cls-1" d="M170.2,21.74a10.63,10.63,0,0,1-1.79-.14,3.94,3.94,0,0,1-1-.66c.32-.32.58-.81,1-.92a34.11,34.11,0,0,1,3.77-.8c2.42-.41,4.84-.78,7.27-1.16a2.29,2.29,0,0,1,1.18-.06c.45.2,1,.59,1.12,1a1.51,1.51,0,0,1-.86,1.15,22,22,0,0,1-3.42.65c-2.4.31-4.79.57-7.19.84Z"/><path class="cls-1" d="M17.81,35.08A12.91,12.91,0,0,1,15.61,37C12.31,38.75,9,40.38,5.58,42a1.35,1.35,0,0,1-1.21-.56,1.4,1.4,0,0,1,.42-1.28,25.15,25.15,0,0,1,2.75-1.21c2.94-1.3,5.87-2.62,8.82-3.92a8.09,8.09,0,0,1,1.22-.32Z"/><path class="cls-1" d="M168.26,30.37c1,.23,2,.4,3,.7,3.32,1.06,6.64,2.13,9.93,3.29a1.77,1.77,0,0,1,1,1.35c0,.76-.74,1-1.47.7-3.23-1.18-6.49-2.3-9.68-3.59a16.89,16.89,0,0,1-2.93-2Z"/></g></g></svg>