<svg xmlns="http://www.w3.org/2000/svg" viewBox="0 0 37 83"><defs><style>.cls-1{fill:#552084;}.cls-2{fill:#d3962a;}.cls-3{fill:#009245;}.cls-4{fill:red;}.cls-5{fill:#fdba21;}.cls-6{opacity:0.25;}.cls-7{fill:#c99a3a;}</style></defs><title>Taco_Drop_37x83_37x83</title><g id="Layer_2" data-name="Layer 2"><g id="Layer_1-2" data-name="Layer 1"><path class="cls-1" d="M12.28,69Q7.56,59,2.82,49c-.52-1.11-1.1-2.2-1.57-3.33a5.22,5.22,0,0,1,1.93-6.75,1.28,1.28,0,0,0,.37-.76,19,19,0,0,1,.48-3A2.38,2.38,0,0,1,7.8,34c1.75,1.74,2.3,1.17,4.24.18A10.79,10.79,0,0,1,15.42,33c2.14-.28,3.51.74,4.32,2.8.23.59.35,1.39.79,1.7s1.12-.11,1.71-.16a28.57,28.57,0,0,1,3.45-.24c1.34,0,1.94.72,2.08,2.06a2,2,0,0,0,1,1.69,6.47,6.47,0,0,1,3.06,7.33.85.85,0,0,0,.34.72,8.42,8.42,0,0,1,3.72,4.42c.27.61.47,1.25.72,1.87a3.17,3.17,0,0,1-.82,3.8,2.83,2.83,0,0,0-.95,2.5A25.59,25.59,0,0,1,29.31,79a10.2,10.2,0,0,1-6.49,4,4.28,4.28,0,0,1-4.6-2.33c-1.94-3.89-4-7.72-6-11.57Zm6.23,9.26c.51-.69.92-1.27,1.36-1.82,2.38-3,4.83-5.94,7.15-9a19.23,19.23,0,0,0,4.35-10.74,16.8,16.8,0,0,0-4.46-12.62,17.79,17.79,0,0,0-11.45-5.87,18.66,18.66,0,0,0-11,1.54A3.66,3.66,0,0,0,2.4,44.38a53.41,53.41,0,0,0,2.44,5.55q3.77,8,7.59,16c1.84,3.82,3.74,7.61,5.61,11.41C18.18,77.61,18.32,77.88,18.51,78.27Zm5.55-4.56c.1.08.15.16.22.17,1.69.15,3.39.4,5.09.42,1.05,0,1.24-.41,1.05-1.48-.07-.39-.17-.78-.26-1.17a3.83,3.83,0,0,1,1.3-4,2.11,2.11,0,0,0,0-3.37c-.35-.25-.55-.26-.81.16C29.75,66,28.81,67.51,27.76,69,26.6,70.58,25.32,72.1,24.06,73.71Zm5.67,2.5L29.54,76l-3.93-.28a10.5,10.5,0,0,1,.21,2.09c-.17,1.52-1.37,2.07-2.6,2.45a25.88,25.88,0,0,1-2.81.57,2.79,2.79,0,0,0,2.59.55,7.71,7.71,0,0,0,3.86-2C27.87,78.35,28.78,77.26,29.73,76.21ZM11,36.3l7.54.74c-.32-2.17-2.07-3.33-4.1-2.5A38,38,0,0,0,11,36.3Zm-2.16.35c-.51-.42-1.1-1-1.73-1.44a1.06,1.06,0,0,0-1.38,0c-.89.67-.81,1.57-.72,2.49Zm23.8,31.94c-1.09,1.16-1.27,1.88-1,2.37Zm.69-6.68-.19-.07-.87,1L33.4,64Z"/><path class="cls-2" d="M18.51,78.27c-.19-.39-.33-.66-.47-.94-1.87-3.8-3.77-7.59-5.61-11.41q-3.82-8-7.59-16A53.41,53.41,0,0,1,2.4,44.38a3.66,3.66,0,0,1,2.05-4.59,18.66,18.66,0,0,1,11-1.54,17.79,17.79,0,0,1,11.45,5.87,16.8,16.8,0,0,1,4.46,12.62A19.23,19.23,0,0,1,27,67.48c-2.32,3-4.77,6-7.15,9C19.43,77,19,77.58,18.51,78.27Z"/><path class="cls-3" d="M24.06,73.71c1.26-1.61,2.54-3.13,3.7-4.74,1-1.46,2-3,2.93-4.55.26-.42.46-.41.81-.16a2.11,2.11,0,0,1,0,3.37,3.83,3.83,0,0,0-1.3,4c.09.39.19.78.26,1.17.19,1.07,0,1.5-1.05,1.48-1.7,0-3.4-.27-5.09-.42C24.21,73.87,24.16,73.79,24.06,73.71Z"/><path class="cls-2" d="M29.73,76.21c-.95,1.05-1.86,2.14-2.87,3.13a7.71,7.71,0,0,1-3.86,2,2.79,2.79,0,0,1-2.59-.55,25.88,25.88,0,0,0,2.81-.57c1.23-.38,2.43-.93,2.6-2.45a10.5,10.5,0,0,0-.21-2.09l3.93.28Z"/><path class="cls-3" d="M11,36.3a38,38,0,0,1,3.44-1.76c2-.83,3.78.33,4.1,2.5Z"/><path class="cls-3" d="M8.87,36.65,5,37.67c-.09-.92-.17-1.82.72-2.49a1.06,1.06,0,0,1,1.38,0C7.77,35.69,8.36,36.23,8.87,36.65Z"/><path class="cls-2" d="M32.67,68.59l-1,2.37C31.4,70.47,31.58,69.75,32.67,68.59Z"/><path class="cls-2" d="M33.36,61.91l0,2.1-1.1-1.12.87-1Z"/><path class="cls-4" d="M32.06,50.36a3.76,3.76,0,0,1,1.77,1.43c.72,1.07,1.79,2.14,2,3.29a4.45,4.45,0,0,1-.62,3,12.47,12.47,0,0,0-.91,1.38,3.21,3.21,0,0,1-1.13.94l-1.41.73S33.93,55.52,32.06,50.36Z"/><path class="cls-4" d="M23.16,74.79,19.87,79.2s4.31.11,4.38-.82S24,75.43,23.16,74.79Z"/><path class="cls-4" d="M22.15,38.71s3.53-.38,3.68-.1a11.06,11.06,0,0,0,.93,2.23c.36.35,2.7,1.49,3.06,2.56s1.3,3.66,1,3.81S28.89,42.62,22.15,38.71Z"/><ellipse class="cls-5" cx="17.03" cy="43.46" rx="2.03" ry="2.06"/><ellipse class="cls-5" cx="7.77" cy="42.29" rx="1.62" ry="1.65"/><ellipse class="cls-5" cx="26.81" cy="52.11" rx="1.35" ry="1.38"/><ellipse class="cls-5" cx="17.27" cy="50.3" rx="1.62" ry="1.65"/><ellipse class="cls-5" cx="9.4" cy="49.82" rx="1.08" ry="1.1"/><ellipse class="cls-5" cx="23.26" cy="60.65" rx="0.68" ry="0.69"/><ellipse class="cls-5" cx="15.28" cy="59.63" rx="1.49" ry="1.51"/><ellipse class="cls-5" cx="19.33" cy="68.72" rx="2.17" ry="2.2"/><g class="cls-6"><path class="cls-7" d="M1,41.39a1,1,0,0,1-1-1V12.61a1,1,0,0,1,1-1,1,1,0,0,1,1,1V40.39A1,1,0,0,1,1,41.39Z"/><path class="cls-7" d="M11.76,36a1,1,0,0,1-1-1V1a1,1,0,1,1,2,0V35A1,1,0,0,1,11.76,36Z"/><path class="cls-7" d="M30.64,39.93a1,1,0,0,1-1-1V24.59a1,1,0,1,1,2,0V38.93A1,1,0,0,1,30.64,39.93Z"/><path class="cls-7" d="M36,53.32a1,1,0,0,1-1-1V1a1,1,0,1,1,2,0V52.32A1,1,0,0,1,36,53.32Z"/></g></g></g></svg>