<svg xmlns="http://www.w3.org/2000/svg" viewBox="0 0 19 36"><defs><style>.cls-1{fill:#fff;}</style></defs><title>Bang_Right_19x36</title><g id="Layer_2" data-name="Layer 2"><g id="Layer_1-2" data-name="Layer 1"><path class="cls-1" d="M1.26,25.59a5.4,5.4,0,0,1,1,.3Q9.9,29.45,17.5,33.05a8,8,0,0,1,.8.47,1.23,1.23,0,0,1,.55,1.73,1.11,1.11,0,0,1-1.64.6c-1.52-.68-3-1.42-4.52-2.13C9,32,5.35,30.24,1.69,28.47A4.09,4.09,0,0,1,.26,27.32C-.32,26.57.1,25.73,1.26,25.59Z"/><path class="cls-1" d="M4.39,16.07c3.29,0,6.48,0,9.67.06.72,0,1.49.12,1.47,1.1s-.72,1.2-1.46,1.18c-3.73-.1-7.46-.22-11.18-.4-.43,0-.83-.55-1.25-.84a5.28,5.28,0,0,1,1.14-.85A8,8,0,0,1,4.39,16.07Z"/><path class="cls-1" d="M1.05,7.32a12.09,12.09,0,0,1,2-2C6.2,3.47,9.36,1.73,12.53,0c.26-.14,1,.21,1.18.52a1.42,1.42,0,0,1-.36,1.29,22.38,22.38,0,0,1-2.59,1.3C8,4.54,5.22,6,2.44,7.34a7.47,7.47,0,0,1-1.16.37Z"/></g></g></svg>