<svg xmlns="http://www.w3.org/2000/svg" viewBox="0 0 21.77 16.79"><defs><style>.cls-1{fill:#fff;}.cls-2{fill:red;}</style></defs><title>Health_34x26</title><g id="Layer_2" data-name="Layer 2"><g id="Layer_1-2" data-name="Layer 1"><g id="_4ZSCVm" data-name="4ZSCVm"><path class="cls-1" d="M10.89,3.23c.28-.26.52-.5.79-.72A6.09,6.09,0,0,1,16,1a3.75,3.75,0,0,1,1.93.71,6.49,6.49,0,0,1,2.78,4.14,3.72,3.72,0,0,1-.44,2.84,8.27,8.27,0,0,1-1,1.26,21.84,21.84,0,0,1-1.82,1.65c-.73.59-1.49,1.15-2.28,1.67-1.1.72-2.23,1.4-3.35,2.09-.23.14-.47.27-.71.4a.28.28,0,0,1-.18,0L7.74,13.93c-.55-.34-1.09-.7-1.62-1.06a24.31,24.31,0,0,1-3.34-2.63A8.19,8.19,0,0,1,1.54,8.79,3.89,3.89,0,0,1,1,6.43a5.49,5.49,0,0,1,.93-2.77A6.11,6.11,0,0,1,4.35,1.45a4.4,4.4,0,0,1,3.09-.31,6.53,6.53,0,0,1,3.09,1.71Z"/><path class="cls-1" d="M6.24,1a5.6,5.6,0,0,1,1.2.14,6.53,6.53,0,0,1,3.09,1.71l.36.38c.28-.26.52-.5.79-.72a6.07,6.07,0,0,1,4-1.51H16a3.75,3.75,0,0,1,1.93.71,6.49,6.49,0,0,1,2.78,4.14,3.72,3.72,0,0,1-.44,2.84,8.27,8.27,0,0,1-1,1.26,21.84,21.84,0,0,1-1.82,1.65c-.73.59-1.49,1.15-2.28,1.67-1.1.72-2.23,1.4-3.35,2.09-.23.14-.47.27-.71.4l-.09,0-.09,0L7.74,13.93c-.55-.34-1.09-.7-1.62-1.06a24.31,24.31,0,0,1-3.34-2.63A8.19,8.19,0,0,1,1.54,8.79,3.89,3.89,0,0,1,1,6.43a5.49,5.49,0,0,1,.93-2.77A6.11,6.11,0,0,1,4.35,1.45,4.11,4.11,0,0,1,6.24,1m0-1A5.15,5.15,0,0,0,3.89.56,7.24,7.24,0,0,0,1.1,3.11,6.6,6.6,0,0,0,0,6.38,4.81,4.81,0,0,0,.7,9.32,8.8,8.8,0,0,0,2.08,11a26.91,26.91,0,0,0,3.47,2.73c.49.34,1.07.73,1.67,1.09.88.53,1.77,1.05,2.66,1.57l.49.28a1.21,1.21,0,0,0,.59.16,1.19,1.19,0,0,0,.56-.14c.25-.13.51-.28.76-.43l.89-.54c.82-.51,1.67-1,2.49-1.56S17.24,13,18,12.39a22.05,22.05,0,0,0,1.9-1.72,8.89,8.89,0,0,0,1.15-1.43,4.69,4.69,0,0,0,.58-3.58A7.46,7.46,0,0,0,18.46.9,4.83,4.83,0,0,0,16,0h-.38A7.09,7.09,0,0,0,11,1.74l-.12.11A7.44,7.44,0,0,0,7.66.17,6.54,6.54,0,0,0,6.24,0Z"/></g><g id="_4ZSCVm-2" data-name="4ZSCVm"><path class="cls-2" d="M10.4,3.64c.27-.24.5-.47.75-.68a5.74,5.74,0,0,1,4.07-1.43,3.63,3.63,0,0,1,1.84.68,6.14,6.14,0,0,1,2.63,3.93,3.51,3.51,0,0,1-.41,2.7,7.49,7.49,0,0,1-1,1.2,21.48,21.48,0,0,1-1.73,1.57c-.7.56-1.42,1.09-2.17,1.59-1,.68-2.12,1.32-3.19,2a7.26,7.26,0,0,1-.67.38.25.25,0,0,1-.17,0c-1-.58-2-1.16-3-1.75-.53-.32-1-.66-1.55-1a24.64,24.64,0,0,1-3.17-2.49A7.31,7.31,0,0,1,1.52,8.93,3.77,3.77,0,0,1,1,6.68a5.26,5.26,0,0,1,.88-2.63A5.93,5.93,0,0,1,4.18,2a4.21,4.21,0,0,1,2.94-.29,6.16,6.16,0,0,1,2.94,1.62C10.18,3.39,10.29,3.52,10.4,3.64Z"/></g><path class="cls-1" d="M3.92,6.41A11.94,11.94,0,0,0,5.84,5.2c.17-.13,1-.92,1-1.13s0-.5-.21-.71-1.42-.63-1.88-.29A3.63,3.63,0,0,0,3.58,4.28C3.5,4.57,2.54,6.5,3.92,6.41Z"/></g></g></svg>