<svg xmlns="http://www.w3.org/2000/svg" viewBox="0 0 17 17"><defs><style>.cls-1{fill:#666;}</style></defs><title>Pause_17x17</title><g id="Layer_2" data-name="Layer 2"><g id="Layer_1-2" data-name="Layer 1"><path class="cls-1" d="M8.49,17A8.5,8.5,0,1,1,17,8.48,8.5,8.5,0,0,1,8.49,17Zm.86-8.49v3.36a.58.58,0,0,0,.62.64h1.39a.57.57,0,0,0,.64-.65V5.13a.59.59,0,0,0-.63-.64H10a.59.59,0,0,0-.66.67Zm-1.74,0h0V5.12A.57.57,0,0,0,7,4.49H5.6A.59.59,0,0,0,5,5.13v6.74a.59.59,0,0,0,.63.64H7a.57.57,0,0,0,.63-.64Z"/></g></g></svg>