<svg xmlns="http://www.w3.org/2000/svg" viewBox="0 0 19 19"><defs><style>.cls-1{fill:#666;}</style></defs><title>Settings_19x19</title><g id="Layer_2" data-name="Layer 2"><g id="Layer_1-2" data-name="Layer 1"><path class="cls-1" d="M8.36,0h2.2a1.36,1.36,0,0,1,.94,1.3,4.13,4.13,0,0,0,.15.78.61.61,0,0,0,.24.29,1.5,1.5,0,0,0,2.16-.25l0,0a1.14,1.14,0,0,1,1.56.12c.36.34.7.69,1,1A1.13,1.13,0,0,1,16.82,5a1.48,1.48,0,0,0-.21,2,.88.88,0,0,0,.35.29,3.39,3.39,0,0,0,.71.11A1.47,1.47,0,0,1,19,8.36v2.2a1.32,1.32,0,0,1-1.23,1,5.75,5.75,0,0,0-.83.14.54.54,0,0,0-.31.22,8.24,8.24,0,0,0-.4,1,.43.43,0,0,0,.05.33c.19.3.41.57.61.86a1.16,1.16,0,0,1-.13,1.61l-.62.63c-1.13,1.12-1.33,1.15-2.63.2a1,1,0,0,0-1-.14,1.2,1.2,0,0,0-1,1.29,1.33,1.33,0,0,1-1,1.36H8.36a1.47,1.47,0,0,1-.92-1.33A3.29,3.29,0,0,0,7.33,17a.8.8,0,0,0-.28-.35,1.36,1.36,0,0,0-2,.21,1.13,1.13,0,0,1-.31.21,1.13,1.13,0,0,1-1.3-.14c-.46-.43-.9-.88-1.34-1.34a1.18,1.18,0,0,1-.22-.45,1.4,1.4,0,0,1,.48-1.36,1.09,1.09,0,0,0,.19-1.37,1.05,1.05,0,0,0-1-.74,1.55,1.55,0,0,1-1.6-1V8.44A1.39,1.39,0,0,1,1.31,7.5a4.29,4.29,0,0,0,.78-.15.42.42,0,0,0,.26-.21c.5-1.08.5-1.09-.19-2.06L2,4.91A1.17,1.17,0,0,1,2.17,3.4C2.55,3,3,2.6,3.36,2.21a1.12,1.12,0,0,1,1.5-.1l.9.63a.4.4,0,0,0,.29.08c.72-.26,1.44-.5,1.39-1.51A1.27,1.27,0,0,1,8.36,0ZM2.83,4.18c.36.51.66,1,1,1.38a.71.71,0,0,1,0,.82,10,10,0,0,0-.57,1.4.73.73,0,0,1-.67.58c-.41.05-.81.13-1.21.18A.35.35,0,0,0,1.06,9a8.67,8.67,0,0,1,0,1.14c0,.31.13.41.4.45s.81.13,1.21.19a.72.72,0,0,1,.64.56,8.51,8.51,0,0,0,.57,1.36.72.72,0,0,1,0,.89c-.27.34-.51.7-.75,1.06-.06.1-.09.3,0,.36.37.41.77.8,1.16,1.19.5-.35.94-.69,1.41-1a1,1,0,0,1,.69,0,10.84,10.84,0,0,1,1.51.61,1,1,0,0,1,.45.53,7.76,7.76,0,0,1,.25,1.36c0,.24.12.32.35.31h1.26c.23,0,.32-.08.35-.31,0-.44.17-.88.23-1.33a.66.66,0,0,1,.5-.59,15.87,15.87,0,0,0,1.48-.61.68.68,0,0,1,.78.06c.35.27.74.51,1.09.79a.3.3,0,0,0,.47,0c.28-.31.58-.61.89-.9a.29.29,0,0,0,0-.46c-.26-.35-.49-.72-.76-1.06a.72.72,0,0,1,0-.86,3.75,3.75,0,0,0,.45-1,1.12,1.12,0,0,1,1.19-1C18,10.49,18,10.46,18,9.28V8.9c0-.23,0-.35-.31-.38-.45,0-.88-.17-1.33-.23a.67.67,0,0,1-.59-.51,15,15,0,0,0-.59-1.44.71.71,0,0,1,0-.82A12,12,0,0,0,16,4.42.42.42,0,0,0,16,4c-.35-.4-.74-.77-1.13-1.17-.48.34-.91.69-1.38,1a1,1,0,0,1-.73,0,11,11,0,0,1-1.55-.64,1,1,0,0,1-.47-.51,8.09,8.09,0,0,1-.23-1.32c0-.26-.14-.37-.41-.36a11.61,11.61,0,0,1-1.18,0c-.28,0-.37.12-.4.36L8.27,2.7a.68.68,0,0,1-.51.59,12.69,12.69,0,0,0-1.47.62.68.68,0,0,1-.78-.05c-.38-.27-.75-.55-1.14-.8a.42.42,0,0,0-.38,0C3.6,3.43,3.23,3.8,2.83,4.18Z"/><path class="cls-1" d="M9.5,13.6a4.1,4.1,0,1,1,4.1-4.07A4.11,4.11,0,0,1,9.5,13.6Zm0-7.13a3,3,0,1,0,3,3.07A3,3,0,0,0,9.49,6.47Z"/></g></g></svg>