<svg xmlns="http://www.w3.org/2000/svg" viewBox="0 0 19 36"><defs><style>.cls-1{fill:#fff;}</style></defs><title>Bang_Left_19x36</title><g id="Layer_2" data-name="Layer 2"><g id="Layer_1-2" data-name="Layer 1"><path class="cls-1" d="M17.64,11.38a6.05,6.05,0,0,1-1-.36Q9,7,1.44,3C1.17,2.8.92,2.6.65,2.43A1.2,1.2,0,0,1,.2.68,1.15,1.15,0,0,1,1.92.2c1.51.76,3,1.59,4.5,2.39,3.65,2,7.32,3.92,11,5.91a4.11,4.11,0,0,1,1.39,1.23C19.33,10.51,18.84,11.32,17.64,11.38Z"/><path class="cls-1" d="M13.85,20.61l-9.91-.67c-.74-.06-1.52-.22-1.45-1.2s.82-1.13,1.58-1.07c3.81.34,7.63.69,11.43,1.12.44.05.83.59,1.24.9a4.88,4.88,0,0,1-1.22.77A8.22,8.22,0,0,1,13.85,20.61Z"/><path class="cls-1" d="M16.74,29.5a12,12,0,0,1-2.22,1.85C11.23,33,7.88,34.5,4.52,36a1.33,1.33,0,0,1-1.17-.6,1.36,1.36,0,0,1,.45-1.25A25.2,25.2,0,0,1,6.53,33c2.93-1.21,5.85-2.43,8.78-3.63a9.69,9.69,0,0,1,1.21-.29Z"/></g></g></svg>