<svg xmlns="http://www.w3.org/2000/svg" viewBox="0 0 122 28"><defs><style>.cls-1{fill:#fff;}</style></defs><title>Main_Menu_122x28</title><g id="Layer_2" data-name="Layer 2"><g id="Layer_1-2" data-name="Layer 1"><path class="cls-1" d="M21.59,19.22H18.36V14.44H16.74V16H15.09V14.44H13.52v4.78H10.2V8.05h3.22V9.58h1.67v1.63h1.56V9.64h1.67V8.05h3.27Z"/><path class="cls-1" d="M34.17,19.22H30.9V16H26.05v3.19H22.78v-8h1.55V9.67H26V8.05h4.9V9.58h1.65v1.59h1.62Zm-3.27-4.8V11.17H29.27V9.67H27.6v1.59H26.05v3.16Z"/><path class="cls-1" d="M46.27,19.22H36.5V17.65h3.23v-8H36.5V8.05h9.77V9.6H43v8h3.23Z"/><path class="cls-1" d="M59.33,19.22H56.1V17.69H54.48V16.08H52.83V14.44H51.25v4.78H47.94V8.05h3.22V9.58h1.67v1.59h1.65v1.64h1.58V8.05h3.27Z"/><path class="cls-1" d="M74.83,19.22H71.61V14.44H70V16H68.34V14.44H66.76v4.78H63.44V8.05h3.23V9.58h1.67v1.63h1.55V9.64h1.67V8.05h3.27Z"/><path class="cls-1" d="M87.62,19.13H76.09V7.85H87.62V9.42H79.41v3.21h4.91v1.66H79.41v3.22h8.21Z"/><path class="cls-1" d="M100,19.22H96.77V17.69H95.14V16.08H93.49V14.44H91.92v4.78H88.6V8.05h3.23V9.58h1.66v1.59h1.65v1.64h1.58V8.05H100Z"/><path class="cls-1" d="M112.57,17.6H111v1.62h-8.18V17.69h-1.65V8.05h3.22V17.6h4.9V8.05h3.27Z"/><path class="cls-1" d="M122,28H0V0H122ZM1,27H121V1H1Z"/></g></g></svg>