<svg xmlns="http://www.w3.org/2000/svg" viewBox="0 0 100 10"><defs><style>.cls-1{fill:#552084;}</style></defs><title>Start_Game_100x10</title><g id="Layer_2" data-name="Layer 2"><g id="Layer_1-2" data-name="Layer 1"><path class="cls-1" d="M9.89,8.58H8.54V10H1.43V8.66H0V7.24H2.84V8.58H7.05V5.84H1.43V4.42H0V1.6H1.35V.18h5.7V1.52H8.48V2.94H5.68V1.6H2.84V4.32H8.48V5.76H9.89Z"/><path class="cls-1" d="M18.69,1.54H15.91V10H13.07V1.6H10.21V.18h8.48Z"/><path class="cls-1" d="M31.74,10H28.9V7.2H24.69V10H21.85V3H23.2V1.6h1.45V.18H28.9V1.52h1.43v1.4h1.41ZM28.9,5.78V2.92H27.49V1.6H26V3H24.69V5.78Z"/><path class="cls-1" d="M42.66,5.78H39.82V7.14h1.43V8.58h1.41V10H38.45V8.68H37V7.2H35.61V10H32.77V.18h8.48V1.54h1.41ZM39.82,4.36V1.6H35.61V5.78h2.84V4.36Z"/><path class="cls-1" d="M51.46,1.54H48.68V10H45.84V1.6H43V.18h8.48Z"/><path class="cls-1" d="M67.05,10H60V8.66H58.59V7.24H57.16V2.94h1.35V1.54h1.43V.18h7.11V1.54h-5.6v1.4H60v4.2h1.39V8.58h2.82V5.84H62.84V4.42h4.21Z"/><path class="cls-1" d="M78,10H75.13V7.2H70.92V10H68.08V3h1.35V1.6h1.45V.18h4.25V1.52h1.43v1.4H78ZM75.13,5.78V2.92H73.72V1.6H72.27V3H70.92V5.78Z"/><path class="cls-1" d="M88.9,10H86.1V5.8H84.69V7.18H83.26V5.8H81.89V10H79V.18h2.8V1.52h1.45V3h1.35V1.58h1.45V.18H88.9Z"/><path class="cls-1" d="M100,9.92H90V0h10V1.38H92.87V4.2h4.27V5.66H92.87V8.5H100Z"/></g></g></svg>