<svg xmlns="http://www.w3.org/2000/svg" viewBox="0 0 32.03 39.1"><defs><style>.cls-1{fill:#552084;}.cls-2{fill:#d3962a;}.cls-3{fill:#009245;}.cls-4{fill:red;}.cls-5{fill:#fdba21;}</style></defs><title>Taco_37x50</title><g id="Layer_2" data-name="Layer 2"><g id="Layer_1-2" data-name="Layer 1"><path class="cls-1" d="M14.2,29.65,2.85,15.37C2.23,14.58,1.56,13.82,1,13A4.24,4.24,0,0,1,1.3,7.25a1,1,0,0,0,.16-.68,17.88,17.88,0,0,1-.17-2.52A2,2,0,0,1,4.16,2.49C5.9,3.56,6.24,3,7.64,1.85A8.75,8.75,0,0,1,10.16.25a3.16,3.16,0,0,1,4,1.44c.3.43.54,1.05,1,1.21s.9-.3,1.36-.45a25.11,25.11,0,0,1,2.77-.83,1.61,1.61,0,0,1,2.06,1.26A1.62,1.62,0,0,0,22.48,4a5.29,5.29,0,0,1,3.82,5.3.72.72,0,0,0,.41.51,6.93,6.93,0,0,1,3.83,2.84c.33.44.61.91.93,1.36a2.57,2.57,0,0,1,0,3.19,2.32,2.32,0,0,0-.31,2.18,20.71,20.71,0,0,1-1.32,15.05,8.53,8.53,0,0,1-4.55,4.37,3.59,3.59,0,0,1-4.16-1c-2.29-2.75-4.67-5.42-7-8.12ZM21,35.89c.29-.65.51-1.19.76-1.71,1.4-2.84,2.84-5.64,4.18-8.5a15.62,15.62,0,0,0,1.57-9.39A13.64,13.64,0,0,0,21.54,7,14.93,14.93,0,0,0,11.16,4.47,15.77,15.77,0,0,0,2.5,7.75a3,3,0,0,0-.83,4,42.86,42.86,0,0,0,3,4q4.53,5.7,9.09,11.36c2.2,2.71,4.43,5.39,6.65,8.08Zm3.67-4.67c.09,0,.16.09.21.08,1.41-.18,2.83-.3,4.21-.6.86-.19.94-.56.58-1.38-.13-.3-.28-.59-.42-.89A3.11,3.11,0,0,1,29.53,25a1.71,1.71,0,0,0-.58-2.7c-.33-.14-.5-.11-.63.28-.49,1.4-1,2.81-1.55,4.18S25.36,29.69,24.63,31.22Zm5.07.94L29.5,32l-3.24.5a8.24,8.24,0,0,1,.55,1.63c.14,1.24-.73,1.91-1.66,2.44a21.33,21.33,0,0,1-2.18,1,2.36,2.36,0,0,0,2.21,0,6.51,6.51,0,0,0,2.76-2.35C28.57,34.21,29.12,33.17,29.7,32.16ZM7.2,3.73l6.27-.8A2.4,2.4,0,0,0,9.68,1.69C8.77,2.32,8,3.09,7.2,3.73Zm-1.68.69C5,4.17,4.45,3.86,3.85,3.59a.89.89,0,0,0-1.13.23A2,2,0,0,0,2.59,6Zm25.17,21.1c-.67,1.13-.69,1.74-.37,2.07ZM30,20.05l-.17,0-.51,1,1.1.69Z"/><path class="cls-2" d="M21,35.89l-.55-.67c-2.22-2.69-4.45-5.37-6.65-8.08Q9.19,21.49,4.67,15.78a42.86,42.86,0,0,1-3-4,3,3,0,0,1,.83-4,15.77,15.77,0,0,1,8.66-3.28A14.93,14.93,0,0,1,21.54,7a13.64,13.64,0,0,1,5.93,9.25,15.62,15.62,0,0,1-1.57,9.39c-1.34,2.86-2.78,5.66-4.18,8.5C21.47,34.7,21.25,35.24,21,35.89Z"/><path class="cls-3" d="M24.63,31.22c.73-1.53,1.49-3,2.14-4.48s1.06-2.78,1.55-4.18c.13-.39.3-.42.63-.28a1.71,1.71,0,0,1,.58,2.7,3.11,3.11,0,0,0-.32,3.45c.14.3.29.59.42.89.36.82.28,1.19-.58,1.38-1.38.3-2.8.42-4.21.6C24.79,31.31,24.72,31.26,24.63,31.22Z"/><path class="cls-2" d="M29.7,32.16c-.58,1-1.13,2.05-1.76,3a6.51,6.51,0,0,1-2.76,2.35,2.36,2.36,0,0,1-2.21,0,21.33,21.33,0,0,0,2.18-1c.93-.53,1.8-1.2,1.66-2.44a8.24,8.24,0,0,0-.55-1.63L29.5,32Z"/><path class="cls-3" d="M7.2,3.73c.77-.64,1.57-1.41,2.48-2a2.4,2.4,0,0,1,3.79,1.24Z"/><path class="cls-3" d="M5.52,4.42,2.59,6a2,2,0,0,1,.13-2.13.89.89,0,0,1,1.13-.23C4.45,3.86,5,4.17,5.52,4.42Z"/><path class="cls-2" d="M30.69,25.52l-.37,2.07C30,27.26,30,26.65,30.69,25.52Z"/><path class="cls-2" d="M30,20.05l.42,1.68L29.35,21l.51-1Z"/><path class="cls-4" d="M26.86,11.07a3.11,3.11,0,0,1,1.7.81c.78.72,1.84,1.38,2.23,2.26a3.59,3.59,0,0,1,.05,2.53,9.47,9.47,0,0,0-.49,1.26,2.43,2.43,0,0,1-.74,1l-1,.85S29.32,14.84,26.86,11.07Z"/><path class="cls-4" d="M24.1,32.24l-1.87,4.14s3.53-.71,3.41-1.47S24.91,32.6,24.1,32.24Z"/><path class="cls-4" d="M16.68,3.6s2.8-1,3-.76a9.72,9.72,0,0,0,1.16,1.6c.36.22,2.47.69,3,1.48s1.72,2.68,1.52,2.85S22.87,5.47,16.68,3.6Z"/><circle class="cls-5" cx="13.39" cy="8.34" r="1.69"/><circle class="cls-5" cx="5.66" cy="9.13" r="1.35"/><circle class="cls-5" cx="22.92" cy="13.44" r="1.13"/><circle class="cls-5" cx="14.84" cy="13.77" r="1.35"/><circle class="cls-5" cx="8.36" cy="14.84" r="0.9"/><circle class="cls-5" cx="21.6" cy="20.93" r="0.56"/><circle class="cls-5" cx="14.92" cy="21.59" r="1.24"/><circle class="cls-5" cx="19.88" cy="28.1" r="1.8"/></g></g></svg>