<svg xmlns="http://www.w3.org/2000/svg" viewBox="0 0 203 33"><defs><style>.cls-1{fill:#fff;}.cls-2{fill:#552084;}.cls-3{fill:#7944b2;}</style></defs><title>Tuesday_203x33</title><g id="Layer_2" data-name="Layer 2"><g id="Layer_1-2" data-name="Layer 1"><path class="cls-1" d="M23.86,7.15c1.9,0,5.69.16,8.87.16,2,0,5.36-.1,10.13-.32-.52,2.63-1.08,5.9-1.4,8.7a27.71,27.71,0,0,0-4.19-.55c-.13,1.06-.2,4.43-.2,5.65,0,.35.07,5.13.33,9.66-1-.06-2.42-.19-4.61-.22-.46,0-2.22,0-4.84.12.29-2.69.39-6.9.39-9.69,0-.9,0-2.63-.26-5.42-1.21.09-3.34.22-5.4.45Z"/><path class="cls-1" d="M37.74,30.79l-.91-.06c-.95-.07-2.24-.16-4-.19-.44,0-2.19,0-4.83.13h-.37l0-.36c.29-2.64.39-6.85.39-9.66,0-1.4-.08-3.11-.24-5.08l-.76.05c-1.17.09-2.77.2-4.3.37l-.41.05,1.27-9.22h.28c.83,0,2,0,3.37.07,1.74,0,3.71.09,5.5.09,2.16,0,5.66-.11,10.12-.32l.41,0-.08.4c-.6,3-1.11,6.17-1.4,8.67l0,.35L41.39,16a30,30,0,0,0-3.83-.52c-.11,1.28-.16,4.21-.16,5.32,0,.47.07,5.19.32,9.64Zm-5-.88c1.83,0,3.13.12,4.08.19h.19c-.24-4.36-.31-8.86-.31-9.32,0-1.12.06-4.57.2-5.69l0-.29h.3a31.55,31.55,0,0,1,3.89.48c.29-2.34.75-5.21,1.29-8-4.27.2-7.64.31-9.74.31-1.8,0-3.78-.06-5.52-.1-1.21,0-2.27-.06-3.07-.06l-1.08,7.86c1.41-.15,2.84-.25,3.91-.33l1.08-.08.33,0,0,.31c.18,2.13.26,4,.26,5.45,0,2.82-.09,6.7-.35,9.36C30.75,29.94,32.37,29.91,32.79,29.91Z"/><path class="cls-1" d="M54.51,30.42a18.79,18.79,0,0,1-5-.77,43.56,43.56,0,0,1-5.79-2c.16-4,.23-7.68.23-9.41,0-3.37-.23-8.22-.36-10a36.69,36.69,0,0,1,9.78-1,65.36,65.36,0,0,0-.88,9.79,21.58,21.58,0,0,0,.26,4.2c.13.16,1,.61,3.17.84.1-1.54.29-9.15.29-10.18,0-1.6-.06-2.85-.13-4.07a33.67,33.67,0,0,1,7.23-.65c1,0,1.54,0,2.22.07-.09,3.56-.29,9.21-.39,12.77,0,1.29,0,2.57,0,3.85,0,4,.07,5.3.16,6.58-1.47-.12-2.94-.19-4.41-.19s-3.21.07-4.65.19l-.06-1.57Z"/><path class="cls-1" d="M54.64,30.73h-.13A19.36,19.36,0,0,1,49.39,30a42.85,42.85,0,0,1-5.84-2l-.2-.09v-.22c.15-3.85.23-7.57.23-9.39,0-3.5-.24-8.33-.36-10l0-.27.26-.06a37.59,37.59,0,0,1,9.87-1h.36l-.05.35a64.08,64.08,0,0,0-.88,9.75,18,18,0,0,0,.2,4,6.71,6.71,0,0,0,2.61.67c.1-2.07.27-8.87.27-9.82,0-1.63-.07-2.92-.13-4.06V7.47l.26,0a33.56,33.56,0,0,1,7.3-.65c.91,0,1.39,0,2,.05l.6,0v.31c0,1.78-.13,4.08-.2,6.39s-.15,4.6-.19,6.38c0,1.28,0,2.58,0,3.84,0,4.1.07,5.35.17,6.56l0,.37-.38,0c-1.45-.13-2.92-.19-4.38-.19s-3.28.07-4.62.19l-.33,0,0-1.16ZM44,27.42a43.94,43.94,0,0,0,5.54,1.92,19.28,19.28,0,0,0,4.82.76l2-2.07.08,2c1.31-.1,2.9-.17,4.34-.17s2.71.06,4.06.17c-.08-1.13-.13-2.53-.13-6.24,0-1.26,0-2.57,0-3.86,0-1.78.12-4.08.2-6.38s.13-4.35.18-6.08c-.54,0-1,0-1.89,0A33.61,33.61,0,0,0,56.38,8c.06,1.08.12,2.3.12,3.82,0,1-.2,8.67-.3,10.2l0,.33-.33,0c-2-.2-3.13-.62-3.4-.95-.1-.14-.33-.45-.33-4.4A63.18,63.18,0,0,1,53,7.46a36.68,36.68,0,0,0-9.07,1c.12,1.9.34,6.46.34,9.8C44.23,20,44.16,23.64,44,27.42Z"/><path class="cls-1" d="M76.81,16.14c3.47-.23,7.19-.29,7.78-.29,0,1.09-.06,2.24-.06,3.21,0,.57,0,2,.13,3.49-1.93,0-4-.06-7.29-.32l-.17,1.54,8.21-.38a29,29,0,0,1-1.18,7.19c-2.55-.23-6.57-.32-9.22-.32-2.06,0-4.68,0-6.74.09a97.24,97.24,0,0,0,.66-12c0-6.48-.27-9.82-.43-11.46,1.21.1,2.45.2,3.7.26s2.48.1,3.66.1a52.21,52.21,0,0,0,6.74-.36,40.5,40.5,0,0,1,3.33,8.32A46.82,46.82,0,0,0,77,14.31Z"/><path class="cls-1" d="M84.48,30.92l-.28,0c-2.49-.22-6.51-.32-9.19-.32-2.25,0-4.83,0-6.73.1h-.36l0-.36a95.61,95.61,0,0,0,.65-11.94c0-4.77-.14-8.61-.42-11.43l0-.37.39,0c1.24.1,2.46.19,3.68.25s2.46.1,3.65.1a53.17,53.17,0,0,0,6.7-.35l.21,0,.11.19a40.58,40.58,0,0,1,3.36,8.38l.15.5-.52-.1a46.72,46.72,0,0,0-8.57-.93l-.13,1.18c3.25-.2,6.74-.27,7.42-.27h.34v.33c0,1.14-.07,2.25-.07,3.2,0,.49,0,1.86.13,3.47l0,.35h-.41c-1.82,0-3.87-.06-6.94-.3l-.09.87,8.17-.38v.33a29.92,29.92,0,0,1-1.18,7.27Zm-9.47-1c2.6,0,6.45.1,9,.3a28.93,28.93,0,0,0,1.09-6.52l-8.24.39.24-2.22.31,0c3.06.24,5.13.28,6.93.31-.09-1.48-.11-2.71-.11-3.17,0-.87,0-1.86.05-2.89-1.18,0-4.46.09-7.43.28l-.38,0L76.71,14H77a47.43,47.43,0,0,1,8.46.83,39.37,39.37,0,0,0-3-7.56,52.53,52.53,0,0,1-6.56.33c-1.2,0-2.44,0-3.68-.09s-2.2-.14-3.32-.23c.26,2.8.39,6.53.39,11.11A96.1,96.1,0,0,1,68.63,30C70.49,30,72.89,29.94,75,29.94Z"/><path class="cls-1" d="M93.75,7c1.6.45,6.74,1.89,11.32,2.7-2,.64-5.89,2.6-5.89,5.07s3.11,3.69,3.11,7.35S99.8,28.88,97,30.87a109.93,109.93,0,0,0-10.76-2.76C88,27.3,92.15,25.38,92.15,23S89,19.28,89,15.69C89,12.67,91.1,9.39,93.75,7Z"/><path class="cls-1" d="M97,31.22l-.15,0C92.48,29.78,89,29,86.68,28.53l-1.46-.32.87-.39c1.42-.64,5.73-2.6,5.73-4.85a4.74,4.74,0,0,0-1.25-2.67,7.4,7.4,0,0,1-1.85-4.61c0-2.87,1.8-6.2,4.81-8.9l.13-.12.22.06c1.66.46,6.72,1.88,11.24,2.67l1.25.22-1.2.4c-2.19.71-5.67,2.64-5.67,4.77a4.73,4.73,0,0,0,1.27,2.75,7.3,7.3,0,0,1,1.84,4.6c0,3.22-2,6.58-5.43,9ZM87.22,28c2.29.49,5.6,1.23,9.71,2.52,3.15-2.28,5-5.41,5-8.38a6.67,6.67,0,0,0-1.71-4.22,5.29,5.29,0,0,1-1.39-3.13c0-2.27,2.87-4.06,5-5-4.13-.79-8.41-2-10.06-2.45-2.76,2.53-4.47,5.7-4.47,8.32a6.78,6.78,0,0,0,1.73,4.24,5.2,5.2,0,0,1,1.38,3C92.47,25.24,89.2,27.05,87.22,28Z"/><path class="cls-1" d="M106.05,30.35c.09-2,.26-6,.26-10.65,0-4.21-.1-8.41-.4-12.62,2.07.07,5.17.16,7.2.16,5.1,0,5.63,0,7.75,1.26a14.63,14.63,0,0,1,4.87,4.84c.36.55,2.49,4,2.49,5.62,0,1.28-1.47,4.81-4.48,8-3.14,3.37-5.72,3.37-7.49,3.37Zm8.56-7.86a7.63,7.63,0,0,0,5.07-3.66,7,7,0,0,0-4.87-3.53C114.78,16.33,114.65,21.33,114.61,22.49Z"/><path class="cls-1" d="M116.25,30.67H105.71v-.33c.12-2.46.26-6.31.26-10.64,0-4.71-.12-8.83-.39-12.59l0-.35h.35c2.06.06,5.17.16,7.19.16,5.17,0,5.71,0,7.92,1.29a15.41,15.41,0,0,1,5,5s2.53,3.9,2.53,5.78c0,1.36-1.45,4.92-4.56,8.24C120.74,30.67,118,30.67,116.25,30.67ZM106.38,30h9.87c1.78,0,4.21,0,7.25-3.27,2.83-3,4.4-6.53,4.4-7.81,0-1.45-1.92-4.66-2.44-5.45a14.58,14.58,0,0,0-4.77-4.74c-2-1.21-2.46-1.21-7.58-1.21-1.92,0-4.8-.09-6.85-.15.25,3.69.37,7.71.37,12.29C106.63,23.86,106.5,27.56,106.38,30Zm7.9-7.16.07-2.66c.05-1.89.12-4.26.14-4.93v-.38l.38.08c3.58.79,5.13,3.47,5.13,3.84s-1.92,3.25-5.33,4Zm.84-7.18c0,1-.08,2.93-.12,4.54l0,1.84a7.61,7.61,0,0,0,4.39-3.25A6.88,6.88,0,0,0,115.12,15.7Zm4.25,3.07Z"/><path class="cls-1" d="M147.88,16.17c1.4,4.75,2.91,9.5,4.48,14.22-.63,0-1.38.06-2.39.06-.56,0-5.92-.1-7.07-.13a34,34,0,0,1-.58-3.72,39.85,39.85,0,0,0-5.27-.45c-.43,1-1.15,2.7-1.64,4.14-2,.13-2.74.19-5.69.19-1.57,0-2.19,0-3.92-.13a169.78,169.78,0,0,0,8.8-23.27A49.07,49.07,0,0,1,140,6.86c2.68,0,4.19.1,5.36.16C145.75,8.46,147.48,14.85,147.88,16.17Zm-7.82,2.63c.85,0,1.18,0,1.7-.07-.59-1.28-1.44-3.56-1.9-4.91-.33,1.13-1,3.37-1.67,5Z"/><path class="cls-1" d="M129.72,30.8c-1.55,0-2.14,0-3.94-.13l-.46,0,.3-.68a168.24,168.24,0,0,0,8.67-23l.06-.19.2,0A47.89,47.89,0,0,1,140,6.54c2.48,0,3.93.08,5.1.15l.51,0,.06.21c.21.71.74,2.63,1.26,4.49s1.09,4,1.29,4.66h0c1.34,4.52,2.85,9.3,4.48,14.21l.13.39-.42,0c-.62,0-1.39.07-2.4.07l-7.08-.13h-.25l0-.24a32.54,32.54,0,0,1-.57-3.52,42.44,42.44,0,0,0-4.76-.4c-.46,1.05-1.1,2.62-1.54,3.92l-.07.2-.64,0C133.31,30.74,132.46,30.8,129.72,30.8Zm-3.44-.74c1.44.08,2.05.11,3.44.11,2.72,0,3.56-.06,5.24-.17h.22c.47-1.36,1.13-3,1.57-4l.09-.2h.22a42.52,42.52,0,0,1,5.32.46l.23,0,0,.3a33,33,0,0,0,.53,3.38c1.54,0,6.31.12,6.8.12.79,0,1.41,0,1.95,0-1.59-4.78-3-9.43-4.35-13.83h0c-.21-.68-.77-2.71-1.31-4.67-.46-1.69-.94-3.44-1.18-4.27H145c-1.15-.06-2.6-.14-5.06-.14-1.61,0-3.76,0-5.12.19A166.67,166.67,0,0,1,126.28,30.06Zm13.78-10.94h-2.34l.17-.44c.71-1.73,1.45-4.22,1.66-4.94l.29-1,.33,1c.42,1.24,1.28,3.57,1.88,4.88l.19.42-.69.05C141.14,19.09,140.79,19.12,140.06,19.12Zm-1.39-.64h1.39c.57,0,.9,0,1.22,0-.45-1-1-2.47-1.39-3.58C139.59,15.85,139.13,17.28,138.67,18.48Z"/><path class="cls-1" d="M158.93,22.84c-1.38-1.79-7.52-9.59-8.7-11.23-.43-.61-.72-1.06-1-1.61,1.93-.61,6.71-2.43,9.45-3.72l3.21,6.26a18.9,18.9,0,0,1,.95,2.05c.75-1.7,2.32-5.39,3.24-7.51,5.06,0,5.69,0,9.51.07-.95,2-5.39,10.88-6.21,12.71a79.59,79.59,0,0,0-4,10.49c-.63-.06-1.8-.12-2.62-.12-1.8,0-5.43.22-9.45.22a37.7,37.7,0,0,0,3.17-3.85Z"/><path class="cls-1" d="M153.24,30.77h-.75l.51-.54a35.3,35.3,0,0,0,3.14-3.81l2.39-3.56c-.53-.7-1.53-2-2.68-3.45-2.28-2.92-5.12-6.56-5.89-7.62-.44-.63-.74-1.09-1.06-1.62l-.2-.35.38-.12c1.84-.58,6.6-2.39,9.41-3.7l.29-.14,3.35,6.54a11.77,11.77,0,0,1,.66,1.38c.48-1.08,1.12-2.58,1.74-4,.44-1,.86-2,1.2-2.79l.08-.19H166c5.1,0,5.68,0,9.53.06H176l-.2.44c-.42.88-1.5,3.07-2.64,5.39-1.46,2.94-3.12,6.29-3.58,7.32a81.13,81.13,0,0,0-4,10.46l-.07.25-.27,0c-.59-.06-1.74-.13-2.58-.13s-1.75,0-2.94.08C157.92,30.69,155.65,30.77,153.24,30.77Zm-3.58-20.59c.25.39.5.77.83,1.25.76,1.05,3.59,4.68,5.87,7.59l2.83,3.63.13.18-2.64,3.94A38.34,38.34,0,0,1,154,30.13c2.13,0,4.12-.08,5.76-.14,1.2,0,2.23-.08,3-.08s1.74.05,2.38.1a82.5,82.5,0,0,1,4-10.28c.47-1,2.05-4.24,3.58-7.34,1-2,1.93-3.89,2.43-4.94-3.35-.08-4.13-.08-8.8,0L165.13,10c-.77,1.8-1.57,3.65-2,4.73l-.3.68-.54-1.28a14.93,14.93,0,0,0-.68-1.43l-3.07-6C155.81,7.92,151.66,9.52,149.66,10.18Z"/><path class="cls-2" d="M25.58,5.46c1.9,0,5.69.16,8.86.16,2,0,5.37-.1,10.14-.32-.52,2.63-1.08,5.91-1.4,8.7A29,29,0,0,0,39,13.45c-.13,1.06-.2,4.43-.2,5.65,0,.35.07,5.14.33,9.66-1-.06-2.42-.19-4.61-.22-.46,0-2.22,0-4.84.13.29-2.7.39-6.9.39-9.7,0-.9,0-2.63-.26-5.42-1.21.1-3.34.22-5.4.45Z"/><path class="cls-1" d="M44.58,5.3c-.52,2.63-1.08,5.91-1.4,8.7A29,29,0,0,0,39,13.45c-.13,1.06-.2,4.43-.2,5.65,0,.35.07,5.14.33,9.66-1-.06-2.42-.19-4.61-.22-.46,0-2.22,0-4.84.13.29-2.7.39-6.9.39-9.7,0-.9,0-2.63-.26-5.42-1.21.1-3.34.22-5.4.45l1.18-8.54c1.9,0,5.69.16,8.86.16,2,0,5.37-.1,10.14-.32m.79-.67-.82,0C40.1,4.88,36.61,5,34.44,5c-1.78,0-3.75,0-5.49-.1-1.36,0-2.53-.06-3.37-.06H25l-.08.55-1.18,8.53-.11.81.83-.09c1.52-.17,3.12-.28,4.28-.37l.45,0c.13,1.82.21,3.45.21,4.74,0,2.8-.11,7-.39,9.63l-.08.73.74,0c2.63-.1,4.38-.13,4.82-.13,1.78,0,3.07.12,4,.19l.56,0,.73.05,0-.71c-.26-4.45-.33-9.16-.33-9.63,0-1,.05-3.6.14-5a27.45,27.45,0,0,1,3.46.49l.7.15.08-.7c.29-2.5.8-5.65,1.4-8.65l.15-.79Z"/><path class="cls-2" d="M56.23,28.73a18.74,18.74,0,0,1-5-.77,43.56,43.56,0,0,1-5.79-2c.16-4,.23-7.67.23-9.41,0-3.37-.23-8.21-.36-10a37.11,37.11,0,0,1,9.78-1,65.87,65.87,0,0,0-.89,9.79c0,.58,0,3.85.27,4.2.13.17,1,.61,3.17.84.1-1.54.29-9.15.29-10.18,0-1.6-.06-2.85-.13-4.07A33.66,33.66,0,0,1,65,5.4c1.05,0,1.54,0,2.22.06-.09,3.56-.29,9.21-.39,12.77,0,1.29,0,2.57,0,3.86,0,4,.07,5.29.16,6.58-1.47-.13-2.94-.2-4.41-.2s-3.21.07-4.65.2l-.06-1.58Z"/><path class="cls-1" d="M65,5.4c1.05,0,1.54,0,2.22.06-.09,3.56-.29,9.21-.39,12.77,0,1.29,0,2.57,0,3.86,0,4,.07,5.29.16,6.58-1.47-.13-2.94-.2-4.41-.2s-3.21.07-4.65.2l-.06-1.58-1.6,1.64a18.74,18.74,0,0,1-5-.77,43.56,43.56,0,0,1-5.79-2c.16-4,.23-7.67.23-9.41,0-3.37-.23-8.21-.36-10a37.28,37.28,0,0,1,8.72-1l1.06,0a65.87,65.87,0,0,0-.89,9.79c0,.58,0,3.85.27,4.2.13.17,1,.61,3.17.84.1-1.54.29-9.15.29-10.18,0-1.6-.06-2.85-.13-4.07A33.66,33.66,0,0,1,65,5.4m0-.64a34.25,34.25,0,0,0-7.37.66l-.53.12,0,.53c.06,1.14.13,2.42.13,4,0,.91-.16,7.08-.26,9.47a7.33,7.33,0,0,1-2-.52,26.45,26.45,0,0,1-.16-3.81,63.51,63.51,0,0,1,.88-9.7l.1-.7-.72,0L54,4.81a38.14,38.14,0,0,0-8.87,1.06L44.59,6l0,.53c.12,1.69.35,6.52.35,10,0,1.82-.07,5.53-.23,9.38v.44l.41.17A44.62,44.62,0,0,0,51,28.57a19.74,19.74,0,0,0,5.21.79h.27l.19-.19.56-.57v.09l0,.67L58,29.3c1.34-.12,3-.19,4.59-.19s2.91.06,4.36.19l.75.06-.05-.74c-.09-1.2-.17-2.44-.17-6.53,0-1.26,0-2.56,0-3.84,0-1.78.12-4.12.19-6.38s.15-4.61.2-6.39l0-.62-.63,0-.29,0c-.56,0-1,0-2,0Z"/><path class="cls-2" d="M78.53,14.45c3.47-.23,7.19-.29,7.78-.29,0,1.09-.06,2.25-.06,3.21,0,.58,0,2,.13,3.5-1.93,0-4-.07-7.3-.32l-.16,1.54,8.21-.39A28.92,28.92,0,0,1,86,28.89c-2.55-.22-6.57-.32-9.22-.32-2.06,0-4.68,0-6.74.1a97.4,97.4,0,0,0,.66-12c0-6.48-.27-9.82-.43-11.45,1.21.09,2.45.19,3.7.25s2.48.1,3.66.1a54.05,54.05,0,0,0,6.74-.35,40.2,40.2,0,0,1,3.33,8.31,46.85,46.85,0,0,0-8.93-.93Z"/><path class="cls-1" d="M84.32,5.24a40.2,40.2,0,0,1,3.33,8.31,46.85,46.85,0,0,0-8.93-.93l-.19,1.83c3.47-.23,7.19-.29,7.78-.29,0,1.09-.06,2.25-.06,3.21,0,.58,0,2,.13,3.5-1.93,0-4-.07-7.3-.32l-.16,1.54,8.21-.39A28.92,28.92,0,0,1,86,28.89c-2.55-.22-6.57-.32-9.22-.32-2.06,0-4.68,0-6.74.1a97.4,97.4,0,0,0,.66-12c0-6.48-.27-9.82-.43-11.45,1.21.09,2.45.19,3.7.25s2.48.1,3.66.1a54.05,54.05,0,0,0,6.74-.35M69.5,4.54l.08.76c.28,2.8.42,6.63.42,11.39a95.39,95.39,0,0,1-.65,11.92l-.07.71.73,0c1.9-.06,4.47-.1,6.72-.1,2.67,0,6.68.1,9.17.32l.54.05.14-.52a29.72,29.72,0,0,0,1.2-7.35V21l-.68,0H87l0-.24c-.1-1.61-.13-3-.13-3.46,0-.94,0-2,.07-3.19v-.12l.56.11,1,.21-.3-1a41.16,41.16,0,0,0-3.39-8.45l-.21-.37-.44.06A52.24,52.24,0,0,1,77.58,5c-1.18,0-2.4,0-3.63-.1s-2.43-.16-3.68-.26l-.77-.06Zm9.75,9.23.06-.51a40.18,40.18,0,0,1,4.52.32c-1.28,0-2.92.09-4.58.19Zm.39,7.65,0-.2,1.73.12-1.75.08Z"/><path class="cls-2" d="M95.47,5.33c1.6.45,6.74,1.9,11.32,2.7-2,.64-5.89,2.6-5.89,5.07S104,16.79,104,20.45s-2.49,6.74-5.3,8.73A109.93,109.93,0,0,0,88,26.42c1.76-.8,5.92-2.73,5.92-5.14S90.76,17.59,90.76,14C90.76,11,92.82,7.71,95.47,5.33Z"/><path class="cls-1" d="M95.47,5.33c1.6.45,6.74,1.9,11.32,2.7-2,.64-5.89,2.6-5.89,5.07S104,16.79,104,20.45s-2.49,6.74-5.3,8.73A109.93,109.93,0,0,0,88,26.42c1.76-.8,5.92-2.73,5.92-5.14S90.76,17.59,90.76,14c0-3,2.06-6.29,4.71-8.67m-.17-.7L95,4.86C92,7.63,90.11,11,90.11,14A7.79,7.79,0,0,0,92,18.8a4.49,4.49,0,0,1,1.19,2.48c0,2-4.17,3.94-5.54,4.56l-1.74.79,1.87.41.52.11c2.31.5,5.79,1.25,10.18,2.63l.31.1.26-.19c3.49-2.46,5.57-5.92,5.57-9.24a7.62,7.62,0,0,0-1.9-4.78,4.51,4.51,0,0,1-1.21-2.57c0-1.09,1.06-2.08,1.95-2.71A13.79,13.79,0,0,1,107,8.63l2.4-.79L106.9,7.4c-4.51-.79-9.55-2.2-11.21-2.67h0l-.35-.09Z"/><path class="cls-2" d="M107.77,28.67c.09-2,.26-6,.26-10.66,0-4.2-.1-8.41-.4-12.61,2.06.06,5.17.16,7.2.16,5.1,0,5.63,0,7.75,1.25a14.76,14.76,0,0,1,4.87,4.85c.36.54,2.49,4,2.49,5.61,0,1.29-1.47,4.82-4.48,8-3.14,3.37-5.72,3.37-7.49,3.37Zm8.56-7.87a7.6,7.6,0,0,0,5.07-3.66,7,7,0,0,0-4.87-3.53C116.5,14.64,116.37,19.65,116.33,20.8Z"/><path class="cls-1" d="M107.63,5.4c2.06.06,5.17.16,7.2.16,5.1,0,5.63,0,7.75,1.25a14.76,14.76,0,0,1,4.87,4.85c.36.54,2.49,4,2.49,5.61,0,1.29-1.47,4.82-4.48,8-3.14,3.37-5.72,3.37-7.49,3.37h-10.2c.09-2,.26-6,.26-10.66,0-4.2-.1-8.41-.4-12.61m8.7,15.4a7.6,7.6,0,0,0,5.07-3.66,7,7,0,0,0-4.87-3.53c0,1-.16,6-.2,7.19M106.94,4.74l0,.7c.26,3.76.39,7.87.39,12.57,0,4.33-.14,8.17-.26,10.63l0,.66H118c1.85,0,4.63,0,8-3.58,3.17-3.38,4.65-7,4.65-8.45,0-2-2.57-5.92-2.59-6a15.56,15.56,0,0,0-5.08-5c-2.29-1.35-3-1.35-8.09-1.35-2,0-5.25-.1-7.18-.16l-.71,0ZM117,20c0-.43,0-1,0-1.53,0-1.36.08-3,.11-4a6.61,6.61,0,0,1,3.54,2.7A7.34,7.34,0,0,1,117,20Z"/><path class="cls-2" d="M149.6,14.48c1.4,4.75,2.91,9.5,4.48,14.22-.63,0-1.38.06-2.39.06-.56,0-5.92-.09-7.07-.13a36.89,36.89,0,0,1-.59-3.72,41.3,41.3,0,0,0-5.26-.45c-.43,1-1.15,2.7-1.64,4.14-2,.13-2.74.19-5.69.19-1.57,0-2.19,0-3.92-.12a170.79,170.79,0,0,0,8.8-23.27,46.64,46.64,0,0,1,5.36-.23c2.68,0,4.19.1,5.36.16C147.47,6.78,149.2,13.16,149.6,14.48Zm-7.82,2.63c.85,0,1.18,0,1.7-.06-.59-1.29-1.44-3.57-1.9-4.91-.33,1.12-1,3.37-1.67,5Z"/><path class="cls-1" d="M141.68,5.17c2.68,0,4.19.1,5.36.16.43,1.45,2.16,7.83,2.56,9.15,1.4,4.75,2.91,9.5,4.48,14.22-.63,0-1.38.06-2.39.06-.56,0-5.92-.09-7.07-.13a36.89,36.89,0,0,1-.59-3.72,41.3,41.3,0,0,0-5.26-.45c-.43,1-1.15,2.7-1.64,4.14-2,.13-2.74.19-5.69.19-1.57,0-2.19,0-3.92-.12a170.79,170.79,0,0,0,8.8-23.27,46.64,46.64,0,0,1,5.36-.23m-1.77,11.94h1.87c.85,0,1.18,0,1.7-.06-.59-1.29-1.44-3.57-1.9-4.91-.33,1.12-1,3.37-1.67,5m1.77-12.57a48.62,48.62,0,0,0-5.45.23l-.41.05-.12.39A167,167,0,0,1,127,28.15l-.11.27-.37.83.92.05c1.77.1,2.41.13,4,.13,2.75,0,3.61-.06,5.31-.17l.43,0,.43,0,.14-.41c.41-1.21,1-2.66,1.44-3.69,1.23.06,2.95.14,4.26.34a32.8,32.8,0,0,0,.54,3.32l.11.48.51,0c1.11,0,6.47.13,7.08.13,1,0,1.8,0,2.42-.07l.84,0-.26-.79c-1.63-4.9-3.14-9.68-4.48-14.2-.19-.67-.75-2.69-1.29-4.65s-1-3.78-1.26-4.49l-.12-.44-.46,0-.28,0c-1.17-.06-2.63-.14-5.12-.14Zm-.83,11.94c.28-.76.55-1.57.78-2.29.29.78.61,1.59.89,2.28h-1.67Z"/><path class="cls-2" d="M160.65,21.16c-1.38-1.8-7.52-9.6-8.7-11.24-.43-.61-.72-1.06-1-1.6,1.93-.61,6.71-2.44,9.45-3.73l3.21,6.26a19.27,19.27,0,0,1,.95,2.06c.75-1.7,2.32-5.4,3.24-7.51,5.06,0,5.69,0,9.51.06-.95,2-5.39,10.88-6.21,12.71a79,79,0,0,0-4,10.5c-.63-.07-1.8-.13-2.62-.13-1.8,0-5.43.22-9.45.22a36.59,36.59,0,0,0,3.17-3.85Z"/><path class="cls-1" d="M160.35,4.59l3.21,6.26a19.27,19.27,0,0,1,.95,2.06c.75-1.7,2.32-5.4,3.24-7.51,1.85,0,3.11,0,4.15,0,1.8,0,2.94,0,5.36.08-.95,2-5.39,10.88-6.21,12.71a79,79,0,0,0-4,10.5c-.63-.07-1.8-.13-2.62-.13-1.8,0-5.43.22-9.45.22a36.59,36.59,0,0,0,3.17-3.85l2.52-3.75c-1.38-1.8-7.52-9.6-8.7-11.24-.43-.61-.72-1.06-1-1.6,1.93-.61,6.71-2.44,9.45-3.73m.3-.83-.57.26c-2.8,1.31-7.55,3.12-9.38,3.69l-.76.25.4.68c.33.54.63,1,1.08,1.64.77,1.07,3.61,4.71,5.89,7.63l2.55,3.27-2.27,3.38a35.67,35.67,0,0,1-3.1,3.77l-1,1.07H155c2.42,0,4.69-.09,6.52-.15,1.19,0,2.22-.08,2.93-.08s2,.07,2.55.13l.53.05.15-.5a79.23,79.23,0,0,1,4-10.42c.46-1,2.11-4.37,3.57-7.32,1.14-2.31,2.22-4.5,2.64-5.38l.41-.88-1,0c-2.49-.07-3.62-.09-5.38-.09l-4.16,0h-.42l-.17.38c-.33.77-.75,1.74-1.18,2.76l-1.46,3.38c-.1-.22-.21-.43-.38-.73l-3.2-6.25-.28-.55Z"/><path class="cls-3" d="M28.14,7.25l-1.09,3a.19.19,0,0,0,0,.08l0,2.08a.17.17,0,0,0,.33.07L28.8,8.79a.17.17,0,0,0,0-.12l-.34-1.4A.17.17,0,0,0,28.14,7.25Z"/><path class="cls-3" d="M32.48,18.77a19.79,19.79,0,0,0-.35-3.95c-.07-.23-.35-.19-.37.06-.1,1.24-.64,4.67-.64,7.06,0,1.9.21,3.3.21,4.3a.13.13,0,1,0,.26,0l.89-7.49Z"/><path class="cls-3" d="M158.51,12a20.81,20.81,0,0,0-2.61-3c-.2-.14-.4,0-.27.26.65,1.07,2.22,4.18,3.62,6.13,1.12,1.56,2.11,2.58,2.7,3.39.12.16.32.05.22-.13L158.51,12Z"/><path class="cls-3" d="M73.36,18.32A19.75,19.75,0,0,0,73,14.38c-.07-.23-.35-.19-.37.06-.1,1.24-.64,4.66-.64,7,0,1.9.21,3.3.21,4.3,0,.2.24.22.26,0l.89-7.48Z"/><path class="cls-3" d="M95.79,9.9a12.79,12.79,0,0,0,.91-3,.18.18,0,0,0-.34-.08,51.88,51.88,0,0,0-2.74,4.92c-.59,1.39-.83,2.49-1.14,3.22a.12.12,0,0,0,.22.1L95.79,9.9Z"/><path class="cls-3" d="M137.21,7.7l-1.15,3a.19.19,0,0,0,0,.08v2.08a.17.17,0,0,0,.33.08l1.47-3.65a.29.29,0,0,0,0-.13l-.32-1.4A.16.16,0,0,0,137.21,7.7Z"/><path class="cls-3" d="M162.19,19.74l-1.15,3a.15.15,0,0,0,0,.07v2.09a.17.17,0,0,0,.33.07l1.46-3.65a.17.17,0,0,0,0-.12l-.32-1.41A.16.16,0,0,0,162.19,19.74Z"/><path class="cls-3" d="M135.1,19.43a20.29,20.29,0,0,0,.63-3.91c0-.25-.3-.27-.38,0-.4,1.18-1.77,4.37-2.36,6.69-.46,1.85-.6,3.25-.85,4.22,0,.19.18.27.25.08l2.71-7Z"/><path class="cls-3" d="M47.06,8.41,47,11.59s0,.05,0,.07l.73,2a.17.17,0,0,0,.33,0l.11-3.93a.2.2,0,0,0,0-.11l-.78-1.22A.17.17,0,0,0,47.06,8.41Z"/><path class="cls-3" d="M92.92,16.68l1.36,2.1,0,0,1.33,1c.13.1.29,0,.2-.16L94.2,17.05a.13.13,0,0,0-.07-.06l-1-.49C93,16.44,92.84,16.56,92.92,16.68Z"/><path class="cls-3" d="M72,7.08l0,3.17s0,.05,0,.08l.73,2a.17.17,0,0,0,.33,0l.11-3.92a.24.24,0,0,0,0-.12L72.31,7A.17.17,0,0,0,72,7.08Z"/><path class="cls-3" d="M111.06,19.66a19.65,19.65,0,0,0-.35-3.94c-.07-.24-.35-.19-.37,0-.1,1.24-.64,4.67-.64,7.06,0,1.9.21,3.3.21,4.3,0,.2.24.21.26,0l.89-7.49Z"/><path class="cls-3" d="M109.7,8.41l0,3.18s0,.05,0,.07l.73,2a.17.17,0,0,0,.33,0l.11-3.93a.2.2,0,0,0,0-.11L110,8.33A.17.17,0,0,0,109.7,8.41Z"/><path class="cls-3" d="M48.59,17.86a11.65,11.65,0,0,0-.67-3,.19.19,0,0,0-.36.09,48.52,48.52,0,0,0-.07,5.45c.16,1.45.48,2.5.56,3.26a.13.13,0,0,0,.26,0l.28-5.81Z"/><path class="cls-1" d="M16.82,10a5.07,5.07,0,0,1-1-.31L1.4,2.7c-.27-.13-.51-.31-.76-.46A1.09,1.09,0,0,1,.17.65,1.09,1.09,0,0,1,1.77.16C3.21.82,4.63,1.54,6.05,2.24c3.49,1.7,7,3.39,10.45,5.12a3.84,3.84,0,0,1,1.34,1.09C18.38,9.15,17.94,9.9,16.82,10Z"/><path class="cls-1" d="M184.9,8.88c-.29-.29-.71-.53-.78-.84a1.2,1.2,0,0,1,.37-1,7.39,7.39,0,0,1,1.86-.94c4.85-1.72,9.71-3.41,14.56-5.11.8-.28,1.58-.4,2,.56s-.3,1.42-1.06,1.7c-3.07,1.09-6.15,2.15-9.23,3.21q-3.15,1.08-6.31,2.12C185.87,8.69,185.44,8.75,184.9,8.88Z"/><path class="cls-1" d="M13.5,18.53c-3.16-.12-6.24-.23-9.31-.36-.7,0-1.43-.16-1.39-1.05s.73-1.06,1.45-1c3.59.21,7.18.43,10.76.72.41,0,.79.52,1.18.8a4.94,4.94,0,0,1-1.12.74A7.31,7.31,0,0,1,13.5,18.53Z"/><path class="cls-1" d="M187.28,17.69a11.58,11.58,0,0,1-1.58-.48c-.32-.16-.54-.53-.8-.8.35-.22.69-.6,1-.62a32.57,32.57,0,0,1,3.56.05c2.26.12,4.52.28,6.78.44a2.18,2.18,0,0,1,1.08.18c.36.27.82.73.8,1.09s-.63.82-1,.84a19.27,19.27,0,0,1-3.22-.11c-2.22-.2-4.43-.46-6.65-.7Z"/><path class="cls-1" d="M16.45,26.59a11.15,11.15,0,0,1-2,1.76c-3.05,1.57-6.15,3-9.27,4.49A1.24,1.24,0,0,1,4,32.33a1.22,1.22,0,0,1,.39-1.16A23.85,23.85,0,0,1,7,30.07l8.15-3.55a8.13,8.13,0,0,1,1.13-.29Z"/><path class="cls-1" d="M183.76,24.93c.85.4,1.72.74,2.53,1.21,2.78,1.6,5.55,3.22,8.27,4.91a1.59,1.59,0,0,1,.6,1.38c-.19.67-.86.71-1.46.33-2.67-1.7-5.38-3.35-8-5.13a15.41,15.41,0,0,1-2.24-2.32Z"/></g></g></svg>